<?xml version="1.0" encoding="utf-8" standalone="no"?>
<!DOCTYPE svg PUBLIC "-//W3C//DTD SVG 1.1//EN"
  "http://www.w3.org/Graphics/SVG/1.1/DTD/svg11.dtd">
<!-- Created with matplotlib (https://matplotlib.org/) -->
<svg height="606.273725pt" version="1.1" viewBox="0 0 580.9105 606.273725" width="580.9105pt" xmlns="http://www.w3.org/2000/svg" xmlns:xlink="http://www.w3.org/1999/xlink">
 <defs>
  <style type="text/css">
*{stroke-linecap:butt;stroke-linejoin:round;}
  </style>
 </defs>
 <g id="figure_1">
  <g id="patch_1">
   <path d="M 0 606.273725 
L 580.9105 606.273725 
L 580.9105 0 
L 0 0 
z
" style="fill:#ffffff;"/>
  </g>
  <g id="axes_1">
   <g id="patch_2">
    <path d="M 74.4705 534.3561 
L 563.7105 534.3561 
L 563.7105 45.1161 
L 74.4705 45.1161 
z
" style="fill:#ffffff;"/>
   </g>
   <g id="matplotlib.axis_1">
    <g id="xtick_1">
     <g id="line2d_1">
      <path clip-path="url(#pf353ff5f00)" d="M 74.4705 534.3561 
L 74.4705 45.1161 
" style="fill:none;stroke:#404040;stroke-dasharray:1.85,0.8;stroke-dashoffset:0;stroke-width:0.5;"/>
     </g>
     <g id="text_1">
      <!-- 0 -->
      <defs>
       <path d="M 31.78125 66.40625 
Q 24.171875 66.40625 20.328125 58.90625 
Q 16.5 51.421875 16.5 36.375 
Q 16.5 21.390625 20.328125 13.890625 
Q 24.171875 6.390625 31.78125 6.390625 
Q 39.453125 6.390625 43.28125 13.890625 
Q 47.125 21.390625 47.125 36.375 
Q 47.125 51.421875 43.28125 58.90625 
Q 39.453125 66.40625 31.78125 66.40625 
z
M 31.78125 74.21875 
Q 44.046875 74.21875 50.515625 64.515625 
Q 56.984375 54.828125 56.984375 36.375 
Q 56.984375 17.96875 50.515625 8.265625 
Q 44.046875 -1.421875 31.78125 -1.421875 
Q 19.53125 -1.421875 13.0625 8.265625 
Q 6.59375 17.96875 6.59375 36.375 
Q 6.59375 54.828125 13.0625 64.515625 
Q 19.53125 74.21875 31.78125 74.21875 
z
" id="DejaVuSans-48"/>
      </defs>
      <g style="fill:#262626;" transform="translate(70.971125 556.214381)scale(0.11 -0.11)">
       <use xlink:href="#DejaVuSans-48"/>
      </g>
     </g>
    </g>
    <g id="xtick_2">
     <g id="line2d_2">
      <path clip-path="url(#pf353ff5f00)" d="M 196.7805 534.3561 
L 196.7805 45.1161 
" style="fill:none;stroke:#404040;stroke-dasharray:1.85,0.8;stroke-dashoffset:0;stroke-width:0.5;"/>
     </g>
     <g id="text_2">
      <!-- 1 -->
      <defs>
       <path d="M 12.40625 8.296875 
L 28.515625 8.296875 
L 28.515625 63.921875 
L 10.984375 60.40625 
L 10.984375 69.390625 
L 28.421875 72.90625 
L 38.28125 72.90625 
L 38.28125 8.296875 
L 54.390625 8.296875 
L 54.390625 0 
L 12.40625 0 
z
" id="DejaVuSans-49"/>
      </defs>
      <g style="fill:#262626;" transform="translate(193.281125 556.214381)scale(0.11 -0.11)">
       <use xlink:href="#DejaVuSans-49"/>
      </g>
     </g>
    </g>
    <g id="xtick_3">
     <g id="line2d_3">
      <path clip-path="url(#pf353ff5f00)" d="M 319.0905 534.3561 
L 319.0905 45.1161 
" style="fill:none;stroke:#404040;stroke-dasharray:1.85,0.8;stroke-dashoffset:0;stroke-width:0.5;"/>
     </g>
     <g id="text_3">
      <!-- 2 -->
      <defs>
       <path d="M 19.1875 8.296875 
L 53.609375 8.296875 
L 53.609375 0 
L 7.328125 0 
L 7.328125 8.296875 
Q 12.9375 14.109375 22.625 23.890625 
Q 32.328125 33.6875 34.8125 36.53125 
Q 39.546875 41.84375 41.421875 45.53125 
Q 43.3125 49.21875 43.3125 52.78125 
Q 43.3125 58.59375 39.234375 62.25 
Q 35.15625 65.921875 28.609375 65.921875 
Q 23.96875 65.921875 18.8125 64.3125 
Q 13.671875 62.703125 7.8125 59.421875 
L 7.8125 69.390625 
Q 13.765625 71.78125 18.9375 73 
Q 24.125 74.21875 28.421875 74.21875 
Q 39.75 74.21875 46.484375 68.546875 
Q 53.21875 62.890625 53.21875 53.421875 
Q 53.21875 48.921875 51.53125 44.890625 
Q 49.859375 40.875 45.40625 35.40625 
Q 44.1875 33.984375 37.640625 27.21875 
Q 31.109375 20.453125 19.1875 8.296875 
z
" id="DejaVuSans-50"/>
      </defs>
      <g style="fill:#262626;" transform="translate(315.591125 556.214381)scale(0.11 -0.11)">
       <use xlink:href="#DejaVuSans-50"/>
      </g>
     </g>
    </g>
    <g id="xtick_4">
     <g id="line2d_4">
      <path clip-path="url(#pf353ff5f00)" d="M 441.4005 534.3561 
L 441.4005 45.1161 
" style="fill:none;stroke:#404040;stroke-dasharray:1.85,0.8;stroke-dashoffset:0;stroke-width:0.5;"/>
     </g>
     <g id="text_4">
      <!-- 3 -->
      <defs>
       <path d="M 40.578125 39.3125 
Q 47.65625 37.796875 51.625 33 
Q 55.609375 28.21875 55.609375 21.1875 
Q 55.609375 10.40625 48.1875 4.484375 
Q 40.765625 -1.421875 27.09375 -1.421875 
Q 22.515625 -1.421875 17.65625 -0.515625 
Q 12.796875 0.390625 7.625 2.203125 
L 7.625 11.71875 
Q 11.71875 9.328125 16.59375 8.109375 
Q 21.484375 6.890625 26.8125 6.890625 
Q 36.078125 6.890625 40.9375 10.546875 
Q 45.796875 14.203125 45.796875 21.1875 
Q 45.796875 27.640625 41.28125 31.265625 
Q 36.765625 34.90625 28.71875 34.90625 
L 20.21875 34.90625 
L 20.21875 43.015625 
L 29.109375 43.015625 
Q 36.375 43.015625 40.234375 45.921875 
Q 44.09375 48.828125 44.09375 54.296875 
Q 44.09375 59.90625 40.109375 62.90625 
Q 36.140625 65.921875 28.71875 65.921875 
Q 24.65625 65.921875 20.015625 65.03125 
Q 15.375 64.15625 9.8125 62.3125 
L 9.8125 71.09375 
Q 15.4375 72.65625 20.34375 73.4375 
Q 25.25 74.21875 29.59375 74.21875 
Q 40.828125 74.21875 47.359375 69.109375 
Q 53.90625 64.015625 53.90625 55.328125 
Q 53.90625 49.265625 50.4375 45.09375 
Q 46.96875 40.921875 40.578125 39.3125 
z
" id="DejaVuSans-51"/>
      </defs>
      <g style="fill:#262626;" transform="translate(437.901125 556.214381)scale(0.11 -0.11)">
       <use xlink:href="#DejaVuSans-51"/>
      </g>
     </g>
    </g>
    <g id="xtick_5">
     <g id="line2d_5">
      <path clip-path="url(#pf353ff5f00)" d="M 563.7105 534.3561 
L 563.7105 45.1161 
" style="fill:none;stroke:#404040;stroke-dasharray:1.85,0.8;stroke-dashoffset:0;stroke-width:0.5;"/>
     </g>
     <g id="text_5">
      <!-- 4 -->
      <defs>
       <path d="M 37.796875 64.3125 
L 12.890625 25.390625 
L 37.796875 25.390625 
z
M 35.203125 72.90625 
L 47.609375 72.90625 
L 47.609375 25.390625 
L 58.015625 25.390625 
L 58.015625 17.1875 
L 47.609375 17.1875 
L 47.609375 0 
L 37.796875 0 
L 37.796875 17.1875 
L 4.890625 17.1875 
L 4.890625 26.703125 
z
" id="DejaVuSans-52"/>
      </defs>
      <g style="fill:#262626;" transform="translate(560.211125 556.214381)scale(0.11 -0.11)">
       <use xlink:href="#DejaVuSans-52"/>
      </g>
     </g>
    </g>
    <g id="xtick_6">
     <g id="text_6">
      <!-- 0.25 -->
      <defs>
       <path d="M 10.6875 12.40625 
L 21 12.40625 
L 21 0 
L 10.6875 0 
z
" id="DejaVuSans-46"/>
       <path d="M 10.796875 72.90625 
L 49.515625 72.90625 
L 49.515625 64.59375 
L 19.828125 64.59375 
L 19.828125 46.734375 
Q 21.96875 47.46875 24.109375 47.828125 
Q 26.265625 48.1875 28.421875 48.1875 
Q 40.625 48.1875 47.75 41.5 
Q 54.890625 34.8125 54.890625 23.390625 
Q 54.890625 11.625 47.5625 5.09375 
Q 40.234375 -1.421875 26.90625 -1.421875 
Q 22.3125 -1.421875 17.546875 -0.640625 
Q 12.796875 0.140625 7.71875 1.703125 
L 7.71875 11.625 
Q 12.109375 9.234375 16.796875 8.0625 
Q 21.484375 6.890625 26.703125 6.890625 
Q 35.15625 6.890625 40.078125 11.328125 
Q 45.015625 15.765625 45.015625 23.390625 
Q 45.015625 31 40.078125 35.4375 
Q 35.15625 39.890625 26.703125 39.890625 
Q 22.75 39.890625 18.8125 39.015625 
Q 14.890625 38.140625 10.796875 36.28125 
z
" id="DejaVuSans-53"/>
      </defs>
      <g style="fill:#404040;" transform="translate(93.915188 550.354537)scale(0.1 -0.1)">
       <use xlink:href="#DejaVuSans-48"/>
       <use x="63.623047" xlink:href="#DejaVuSans-46"/>
       <use x="95.410156" xlink:href="#DejaVuSans-50"/>
       <use x="159.033203" xlink:href="#DejaVuSans-53"/>
      </g>
     </g>
    </g>
    <g id="xtick_7">
     <g id="text_7">
      <!-- 0.50 -->
      <g style="fill:#404040;" transform="translate(124.492687 550.354537)scale(0.1 -0.1)">
       <use xlink:href="#DejaVuSans-48"/>
       <use x="63.623047" xlink:href="#DejaVuSans-46"/>
       <use x="95.410156" xlink:href="#DejaVuSans-53"/>
       <use x="159.033203" xlink:href="#DejaVuSans-48"/>
      </g>
     </g>
    </g>
    <g id="xtick_8">
     <g id="text_8">
      <!-- 0.75 -->
      <defs>
       <path d="M 8.203125 72.90625 
L 55.078125 72.90625 
L 55.078125 68.703125 
L 28.609375 0 
L 18.3125 0 
L 43.21875 64.59375 
L 8.203125 64.59375 
z
" id="DejaVuSans-55"/>
      </defs>
      <g style="fill:#404040;" transform="translate(155.070188 550.354537)scale(0.1 -0.1)">
       <use xlink:href="#DejaVuSans-48"/>
       <use x="63.623047" xlink:href="#DejaVuSans-46"/>
       <use x="95.410156" xlink:href="#DejaVuSans-55"/>
       <use x="159.033203" xlink:href="#DejaVuSans-53"/>
      </g>
     </g>
    </g>
    <g id="xtick_9">
     <g id="text_9">
      <!-- 1.25 -->
      <g style="fill:#404040;" transform="translate(216.225188 550.354537)scale(0.1 -0.1)">
       <use xlink:href="#DejaVuSans-49"/>
       <use x="63.623047" xlink:href="#DejaVuSans-46"/>
       <use x="95.410156" xlink:href="#DejaVuSans-50"/>
       <use x="159.033203" xlink:href="#DejaVuSans-53"/>
      </g>
     </g>
    </g>
    <g id="xtick_10">
     <g id="text_10">
      <!-- 1.50 -->
      <g style="fill:#404040;" transform="translate(246.802687 550.354537)scale(0.1 -0.1)">
       <use xlink:href="#DejaVuSans-49"/>
       <use x="63.623047" xlink:href="#DejaVuSans-46"/>
       <use x="95.410156" xlink:href="#DejaVuSans-53"/>
       <use x="159.033203" xlink:href="#DejaVuSans-48"/>
      </g>
     </g>
    </g>
    <g id="xtick_11">
     <g id="text_11">
      <!-- 1.75 -->
      <g style="fill:#404040;" transform="translate(277.380188 550.354537)scale(0.1 -0.1)">
       <use xlink:href="#DejaVuSans-49"/>
       <use x="63.623047" xlink:href="#DejaVuSans-46"/>
       <use x="95.410156" xlink:href="#DejaVuSans-55"/>
       <use x="159.033203" xlink:href="#DejaVuSans-53"/>
      </g>
     </g>
    </g>
    <g id="xtick_12">
     <g id="text_12">
      <!-- 2.25 -->
      <g style="fill:#404040;" transform="translate(338.535188 550.354537)scale(0.1 -0.1)">
       <use xlink:href="#DejaVuSans-50"/>
       <use x="63.623047" xlink:href="#DejaVuSans-46"/>
       <use x="95.410156" xlink:href="#DejaVuSans-50"/>
       <use x="159.033203" xlink:href="#DejaVuSans-53"/>
      </g>
     </g>
    </g>
    <g id="xtick_13">
     <g id="text_13">
      <!-- 2.50 -->
      <g style="fill:#404040;" transform="translate(369.112687 550.354537)scale(0.1 -0.1)">
       <use xlink:href="#DejaVuSans-50"/>
       <use x="63.623047" xlink:href="#DejaVuSans-46"/>
       <use x="95.410156" xlink:href="#DejaVuSans-53"/>
       <use x="159.033203" xlink:href="#DejaVuSans-48"/>
      </g>
     </g>
    </g>
    <g id="xtick_14">
     <g id="text_14">
      <!-- 2.75 -->
      <g style="fill:#404040;" transform="translate(399.690188 550.354537)scale(0.1 -0.1)">
       <use xlink:href="#DejaVuSans-50"/>
       <use x="63.623047" xlink:href="#DejaVuSans-46"/>
       <use x="95.410156" xlink:href="#DejaVuSans-55"/>
       <use x="159.033203" xlink:href="#DejaVuSans-53"/>
      </g>
     </g>
    </g>
    <g id="xtick_15">
     <g id="text_15">
      <!-- 3.25 -->
      <g style="fill:#404040;" transform="translate(460.845188 550.354537)scale(0.1 -0.1)">
       <use xlink:href="#DejaVuSans-51"/>
       <use x="63.623047" xlink:href="#DejaVuSans-46"/>
       <use x="95.410156" xlink:href="#DejaVuSans-50"/>
       <use x="159.033203" xlink:href="#DejaVuSans-53"/>
      </g>
     </g>
    </g>
    <g id="xtick_16">
     <g id="text_16">
      <!-- 3.50 -->
      <g style="fill:#404040;" transform="translate(491.422688 550.354537)scale(0.1 -0.1)">
       <use xlink:href="#DejaVuSans-51"/>
       <use x="63.623047" xlink:href="#DejaVuSans-46"/>
       <use x="95.410156" xlink:href="#DejaVuSans-53"/>
       <use x="159.033203" xlink:href="#DejaVuSans-48"/>
      </g>
     </g>
    </g>
    <g id="xtick_17">
     <g id="text_17">
      <!-- 3.75 -->
      <g style="fill:#404040;" transform="translate(522.000188 550.354537)scale(0.1 -0.1)">
       <use xlink:href="#DejaVuSans-51"/>
       <use x="63.623047" xlink:href="#DejaVuSans-46"/>
       <use x="95.410156" xlink:href="#DejaVuSans-55"/>
       <use x="159.033203" xlink:href="#DejaVuSans-53"/>
      </g>
     </g>
    </g>
    <g id="text_18">
     <!-- X axis label -->
     <defs>
      <path d="M 6.296875 72.90625 
L 16.890625 72.90625 
L 35.015625 45.796875 
L 53.21875 72.90625 
L 63.8125 72.90625 
L 40.375 37.890625 
L 65.375 0 
L 54.78125 0 
L 34.28125 31 
L 13.625 0 
L 2.984375 0 
L 29 38.921875 
z
" id="DejaVuSans-88"/>
      <path id="DejaVuSans-32"/>
      <path d="M 34.28125 27.484375 
Q 23.390625 27.484375 19.1875 25 
Q 14.984375 22.515625 14.984375 16.5 
Q 14.984375 11.71875 18.140625 8.90625 
Q 21.296875 6.109375 26.703125 6.109375 
Q 34.1875 6.109375 38.703125 11.40625 
Q 43.21875 16.703125 43.21875 25.484375 
L 43.21875 27.484375 
z
M 52.203125 31.203125 
L 52.203125 0 
L 43.21875 0 
L 43.21875 8.296875 
Q 40.140625 3.328125 35.546875 0.953125 
Q 30.953125 -1.421875 24.3125 -1.421875 
Q 15.921875 -1.421875 10.953125 3.296875 
Q 6 8.015625 6 15.921875 
Q 6 25.140625 12.171875 29.828125 
Q 18.359375 34.515625 30.609375 34.515625 
L 43.21875 34.515625 
L 43.21875 35.40625 
Q 43.21875 41.609375 39.140625 45 
Q 35.0625 48.390625 27.6875 48.390625 
Q 23 48.390625 18.546875 47.265625 
Q 14.109375 46.140625 10.015625 43.890625 
L 10.015625 52.203125 
Q 14.9375 54.109375 19.578125 55.046875 
Q 24.21875 56 28.609375 56 
Q 40.484375 56 46.34375 49.84375 
Q 52.203125 43.703125 52.203125 31.203125 
z
" id="DejaVuSans-97"/>
      <path d="M 54.890625 54.6875 
L 35.109375 28.078125 
L 55.90625 0 
L 45.3125 0 
L 29.390625 21.484375 
L 13.484375 0 
L 2.875 0 
L 24.125 28.609375 
L 4.6875 54.6875 
L 15.28125 54.6875 
L 29.78125 35.203125 
L 44.28125 54.6875 
z
" id="DejaVuSans-120"/>
      <path d="M 9.421875 54.6875 
L 18.40625 54.6875 
L 18.40625 0 
L 9.421875 0 
z
M 9.421875 75.984375 
L 18.40625 75.984375 
L 18.40625 64.59375 
L 9.421875 64.59375 
z
" id="DejaVuSans-105"/>
      <path d="M 44.28125 53.078125 
L 44.28125 44.578125 
Q 40.484375 46.53125 36.375 47.5 
Q 32.28125 48.484375 27.875 48.484375 
Q 21.1875 48.484375 17.84375 46.4375 
Q 14.5 44.390625 14.5 40.28125 
Q 14.5 37.15625 16.890625 35.375 
Q 19.28125 33.59375 26.515625 31.984375 
L 29.59375 31.296875 
Q 39.15625 29.25 43.1875 25.515625 
Q 47.21875 21.78125 47.21875 15.09375 
Q 47.21875 7.46875 41.1875 3.015625 
Q 35.15625 -1.421875 24.609375 -1.421875 
Q 20.21875 -1.421875 15.453125 -0.5625 
Q 10.6875 0.296875 5.421875 2 
L 5.421875 11.28125 
Q 10.40625 8.6875 15.234375 7.390625 
Q 20.0625 6.109375 24.8125 6.109375 
Q 31.15625 6.109375 34.5625 8.28125 
Q 37.984375 10.453125 37.984375 14.40625 
Q 37.984375 18.0625 35.515625 20.015625 
Q 33.0625 21.96875 24.703125 23.78125 
L 21.578125 24.515625 
Q 13.234375 26.265625 9.515625 29.90625 
Q 5.8125 33.546875 5.8125 39.890625 
Q 5.8125 47.609375 11.28125 51.796875 
Q 16.75 56 26.8125 56 
Q 31.78125 56 36.171875 55.265625 
Q 40.578125 54.546875 44.28125 53.078125 
z
" id="DejaVuSans-115"/>
      <path d="M 9.421875 75.984375 
L 18.40625 75.984375 
L 18.40625 0 
L 9.421875 0 
z
" id="DejaVuSans-108"/>
      <path d="M 48.6875 27.296875 
Q 48.6875 37.203125 44.609375 42.84375 
Q 40.53125 48.484375 33.40625 48.484375 
Q 26.265625 48.484375 22.1875 42.84375 
Q 18.109375 37.203125 18.109375 27.296875 
Q 18.109375 17.390625 22.1875 11.75 
Q 26.265625 6.109375 33.40625 6.109375 
Q 40.53125 6.109375 44.609375 11.75 
Q 48.6875 17.390625 48.6875 27.296875 
z
M 18.109375 46.390625 
Q 20.953125 51.265625 25.265625 53.625 
Q 29.59375 56 35.59375 56 
Q 45.5625 56 51.78125 48.09375 
Q 58.015625 40.1875 58.015625 27.296875 
Q 58.015625 14.40625 51.78125 6.484375 
Q 45.5625 -1.421875 35.59375 -1.421875 
Q 29.59375 -1.421875 25.265625 0.953125 
Q 20.953125 3.328125 18.109375 8.203125 
L 18.109375 0 
L 9.078125 0 
L 9.078125 75.984375 
L 18.109375 75.984375 
z
" id="DejaVuSans-98"/>
      <path d="M 56.203125 29.59375 
L 56.203125 25.203125 
L 14.890625 25.203125 
Q 15.484375 15.921875 20.484375 11.0625 
Q 25.484375 6.203125 34.421875 6.203125 
Q 39.59375 6.203125 44.453125 7.46875 
Q 49.3125 8.734375 54.109375 11.28125 
L 54.109375 2.78125 
Q 49.265625 0.734375 44.1875 -0.34375 
Q 39.109375 -1.421875 33.890625 -1.421875 
Q 20.796875 -1.421875 13.15625 6.1875 
Q 5.515625 13.8125 5.515625 26.8125 
Q 5.515625 40.234375 12.765625 48.109375 
Q 20.015625 56 32.328125 56 
Q 43.359375 56 49.78125 48.890625 
Q 56.203125 41.796875 56.203125 29.59375 
z
M 47.21875 32.234375 
Q 47.125 39.59375 43.09375 43.984375 
Q 39.0625 48.390625 32.421875 48.390625 
Q 24.90625 48.390625 20.390625 44.140625 
Q 15.875 39.890625 15.1875 32.171875 
z
" id="DejaVuSans-101"/>
     </defs>
     <g style="fill:#262626;" transform="translate(284.634563 571.620162)scale(0.12 -0.12)">
      <use xlink:href="#DejaVuSans-88"/>
      <use x="68.505859" xlink:href="#DejaVuSans-32"/>
      <use x="100.292969" xlink:href="#DejaVuSans-97"/>
      <use x="161.572266" xlink:href="#DejaVuSans-120"/>
      <use x="220.751953" xlink:href="#DejaVuSans-105"/>
      <use x="248.535156" xlink:href="#DejaVuSans-115"/>
      <use x="300.634766" xlink:href="#DejaVuSans-32"/>
      <use x="332.421875" xlink:href="#DejaVuSans-108"/>
      <use x="360.205078" xlink:href="#DejaVuSans-97"/>
      <use x="421.484375" xlink:href="#DejaVuSans-98"/>
      <use x="484.960938" xlink:href="#DejaVuSans-101"/>
      <use x="546.484375" xlink:href="#DejaVuSans-108"/>
     </g>
    </g>
   </g>
   <g id="matplotlib.axis_2">
    <g id="ytick_1">
     <g id="line2d_6">
      <path clip-path="url(#pf353ff5f00)" d="M 74.4705 534.3561 
L 563.7105 534.3561 
" style="fill:none;stroke:#404040;stroke-dasharray:1.85,0.8;stroke-dashoffset:0;stroke-width:0.5;"/>
     </g>
     <g id="text_19">
      <!-- 0 -->
      <g style="fill:#262626;" transform="translate(53.97175 538.535241)scale(0.11 -0.11)">
       <use xlink:href="#DejaVuSans-48"/>
      </g>
     </g>
    </g>
    <g id="ytick_2">
     <g id="line2d_7">
      <path clip-path="url(#pf353ff5f00)" d="M 74.4705 412.0461 
L 563.7105 412.0461 
" style="fill:none;stroke:#404040;stroke-dasharray:1.85,0.8;stroke-dashoffset:0;stroke-width:0.5;"/>
     </g>
     <g id="text_20">
      <!-- 1 -->
      <g style="fill:#262626;" transform="translate(53.97175 416.225241)scale(0.11 -0.11)">
       <use xlink:href="#DejaVuSans-49"/>
      </g>
     </g>
    </g>
    <g id="ytick_3">
     <g id="line2d_8">
      <path clip-path="url(#pf353ff5f00)" d="M 74.4705 289.7361 
L 563.7105 289.7361 
" style="fill:none;stroke:#404040;stroke-dasharray:1.85,0.8;stroke-dashoffset:0;stroke-width:0.5;"/>
     </g>
     <g id="text_21">
      <!-- 2 -->
      <g style="fill:#262626;" transform="translate(53.97175 293.915241)scale(0.11 -0.11)">
       <use xlink:href="#DejaVuSans-50"/>
      </g>
     </g>
    </g>
    <g id="ytick_4">
     <g id="line2d_9">
      <path clip-path="url(#pf353ff5f00)" d="M 74.4705 167.4261 
L 563.7105 167.4261 
" style="fill:none;stroke:#404040;stroke-dasharray:1.85,0.8;stroke-dashoffset:0;stroke-width:0.5;"/>
     </g>
     <g id="text_22">
      <!-- 3 -->
      <g style="fill:#262626;" transform="translate(53.97175 171.605241)scale(0.11 -0.11)">
       <use xlink:href="#DejaVuSans-51"/>
      </g>
     </g>
    </g>
    <g id="ytick_5">
     <g id="line2d_10">
      <path clip-path="url(#pf353ff5f00)" d="M 74.4705 45.1161 
L 563.7105 45.1161 
" style="fill:none;stroke:#404040;stroke-dasharray:1.85,0.8;stroke-dashoffset:0;stroke-width:0.5;"/>
     </g>
     <g id="text_23">
      <!-- 4 -->
      <g style="fill:#262626;" transform="translate(53.97175 49.295241)scale(0.11 -0.11)">
       <use xlink:href="#DejaVuSans-52"/>
      </g>
     </g>
    </g>
    <g id="ytick_6"/>
    <g id="ytick_7"/>
    <g id="ytick_8"/>
    <g id="ytick_9"/>
    <g id="ytick_10"/>
    <g id="ytick_11"/>
    <g id="ytick_12"/>
    <g id="ytick_13"/>
    <g id="ytick_14"/>
    <g id="ytick_15"/>
    <g id="ytick_16"/>
    <g id="ytick_17"/>
    <g id="text_24">
     <!-- Y axis label -->
     <defs>
      <path d="M -0.203125 72.90625 
L 10.40625 72.90625 
L 30.609375 42.921875 
L 50.6875 72.90625 
L 61.28125 72.90625 
L 35.5 34.71875 
L 35.5 0 
L 25.59375 0 
L 25.59375 34.71875 
z
" id="DejaVuSans-89"/>
     </defs>
     <g style="fill:#262626;" transform="translate(47.476125 323.746725)rotate(-90)scale(0.12 -0.12)">
      <use xlink:href="#DejaVuSans-89"/>
      <use x="61.083984" xlink:href="#DejaVuSans-32"/>
      <use x="92.871094" xlink:href="#DejaVuSans-97"/>
      <use x="154.150391" xlink:href="#DejaVuSans-120"/>
      <use x="213.330078" xlink:href="#DejaVuSans-105"/>
      <use x="241.113281" xlink:href="#DejaVuSans-115"/>
      <use x="293.212891" xlink:href="#DejaVuSans-32"/>
      <use x="325" xlink:href="#DejaVuSans-108"/>
      <use x="352.783203" xlink:href="#DejaVuSans-97"/>
      <use x="414.0625" xlink:href="#DejaVuSans-98"/>
      <use x="477.539062" xlink:href="#DejaVuSans-101"/>
      <use x="539.0625" xlink:href="#DejaVuSans-108"/>
     </g>
    </g>
   </g>
   <g id="line2d_11">
    <path clip-path="url(#pf353ff5f00)" d="M 135.6255 417.900074 
L 139.331864 420.354189 
L 143.038227 422.794744 
L 146.744591 425.217754 
L 150.450955 427.619265 
L 154.157318 429.995356 
L 157.863682 432.342149 
L 161.570045 434.655814 
L 165.276409 436.932573 
L 168.982773 439.168711 
L 172.689136 441.360578 
L 176.3955 443.504596 
L 180.101864 445.597266 
L 183.808227 447.635171 
L 187.514591 449.614985 
L 191.220955 451.533477 
L 194.927318 453.387515 
L 198.633682 455.174073 
L 202.340045 456.890235 
L 206.046409 458.533199 
L 209.752773 460.100284 
L 213.459136 461.588932 
L 217.1655 462.996713 
L 220.871864 464.321329 
L 224.578227 465.560618 
L 228.284591 466.712557 
L 231.990955 467.775266 
L 235.697318 468.74701 
L 239.403682 469.626203 
L 243.110045 470.411411 
L 246.816409 471.101351 
L 250.522773 471.694897 
L 254.229136 472.19108 
L 257.9355 472.589091 
L 261.641864 472.88828 
L 265.348227 473.088158 
L 269.054591 473.1884 
L 272.760955 473.188841 
L 276.467318 473.089481 
L 280.173682 472.890482 
L 283.880045 472.592168 
L 287.586409 472.195028 
L 291.292773 471.699709 
L 294.999136 471.107019 
L 298.7055 470.417926 
L 302.411864 469.633555 
L 306.118227 468.755186 
L 309.824591 467.784253 
L 313.530955 466.722341 
L 317.237318 465.571182 
L 320.943682 464.332656 
L 324.650045 463.008785 
L 328.356409 461.601729 
L 332.062773 460.113785 
L 335.769136 458.547382 
L 339.4755 456.905077 
L 343.181864 455.18955 
L 346.888227 453.403602 
L 350.594591 451.550147 
L 354.300955 449.632211 
L 358.007318 447.652924 
L 361.713682 445.615518 
L 365.420045 443.523318 
L 369.126409 441.379738 
L 372.832773 439.188279 
L 376.539136 436.952516 
L 380.2455 434.676099 
L 383.951864 432.362744 
L 387.658227 430.016227 
L 391.364591 427.640378 
L 395.070955 425.239075 
L 398.777318 422.816237 
L 402.483682 420.37582 
L 406.190045 417.921807 
L 409.896409 415.458203 
L 413.602773 412.989029 
L 417.309136 410.518316 
L 421.0155 408.050097 
L 424.721864 405.588401 
L 428.428227 403.137245 
L 432.134591 400.700631 
L 435.840955 398.282535 
L 439.547318 395.886906 
L 443.253682 393.517652 
L 446.960045 391.178642 
L 450.666409 388.873693 
L 454.372773 386.606567 
L 458.079136 384.380966 
L 461.7855 382.200521 
L 465.491864 380.068792 
L 469.198227 377.989259 
L 472.904591 375.965315 
L 476.610955 374.000265 
L 480.317318 372.097316 
L 484.023682 370.259574 
L 487.730045 368.490038 
L 491.436409 366.791597 
L 495.142773 365.167024 
L 498.849136 363.618969 
L 502.5555 362.149961 
" style="fill:none;stroke:#ff0000;stroke-linecap:round;stroke-width:2;"/>
   </g>
   <g id="line2d_12">
    <path clip-path="url(#pf353ff5f00)" d="M 135.6255 310.68817 
L 139.331864 328.145975 
L 143.038227 318.438762 
L 146.744591 269.522514 
L 150.450955 419.629706 
L 154.157318 324.326998 
L 157.863682 161.681336 
L 161.570045 131.64908 
L 165.276409 328.216387 
L 168.982773 338.544177 
L 172.689136 174.978113 
L 176.3955 207.566825 
L 180.101864 434.425222 
L 183.808227 338.629974 
L 187.514591 259.71506 
L 191.220955 346.091398 
L 194.927318 280.756199 
L 198.633682 430.072122 
L 202.340045 365.600351 
L 206.046409 326.684231 
L 209.752773 339.015163 
L 213.459136 253.099944 
L 217.1655 306.023993 
L 220.871864 395.974922 
L 224.578227 371.072565 
L 228.284591 229.269162 
L 231.990955 187.117513 
L 235.697318 205.267512 
L 239.403682 184.674169 
L 243.110045 300.919413 
L 246.816409 258.494367 
L 250.522773 267.65752 
L 254.229136 463.603009 
L 257.9355 193.589987 
L 261.641864 282.997157 
L 265.348227 406.509251 
L 269.054591 464.968072 
L 272.760955 318.358957 
L 276.467318 276.801929 
L 280.173682 346.614398 
L 283.880045 198.458252 
L 287.586409 298.726458 
L 291.292773 445.488815 
L 294.999136 239.941514 
L 298.7055 400.875535 
L 302.411864 371.674389 
L 306.118227 291.359383 
L 309.824591 447.755642 
L 313.530955 273.356624 
L 317.237318 421.744715 
L 320.943682 403.398885 
L 324.650045 250.598163 
L 328.356409 425.260804 
L 332.062773 442.595262 
L 335.769136 282.786878 
L 339.4755 442.121029 
L 343.181864 344.770423 
L 346.888227 342.396886 
L 350.594591 263.396386 
L 354.300955 294.2162 
L 358.007318 391.667071 
L 361.713682 348.684034 
L 365.420045 399.698229 
L 369.126409 422.492029 
L 372.832773 398.555643 
L 376.539136 424.295309 
L 380.2455 369.451283 
L 383.951864 367.94586 
L 387.658227 379.455899 
L 391.364591 310.80909 
L 395.070955 400.640156 
L 398.777318 292.832783 
L 402.483682 391.311185 
L 406.190045 410.818449 
L 409.896409 300.159108 
L 413.602773 400.74457 
L 417.309136 383.48822 
L 421.0155 379.314054 
L 424.721864 357.188446 
L 428.428227 337.79421 
L 432.134591 369.170668 
L 435.840955 333.713952 
L 439.547318 312.652865 
L 443.253682 336.343623 
L 446.960045 375.66779 
L 450.666409 382.577132 
L 454.372773 382.344378 
L 458.079136 326.844797 
L 461.7855 355.219717 
L 465.491864 301.272406 
L 469.198227 320.669817 
L 472.904591 324.106582 
L 476.610955 343.925126 
L 480.317318 290.620679 
L 484.023682 331.853437 
L 487.730045 297.135513 
L 491.436409 327.793099 
L 495.142773 292.634756 
L 498.849136 295.914272 
L 502.5555 355.737471 
" style="fill:none;"/>
    <defs>
     <path d="M 0 3 
C 0.795609 3 1.55874 2.683901 2.12132 2.12132 
C 2.683901 1.55874 3 0.795609 3 0 
C 3 -0.795609 2.683901 -1.55874 2.12132 -2.12132 
C 1.55874 -2.683901 0.795609 -3 0 -3 
C -0.795609 -3 -1.55874 -2.683901 -2.12132 -2.12132 
C -2.683901 -1.55874 -3 -0.795609 -3 0 
C -3 0.795609 -2.683901 1.55874 -2.12132 2.12132 
C -1.55874 2.683901 -0.795609 3 0 3 
z
" id="m3f6a2336fd" style="stroke:#1a1a1a;"/>
    </defs>
    <g clip-path="url(#pf353ff5f00)">
     <use style="fill:#ccb974;stroke:#1a1a1a;" x="135.6255" xlink:href="#m3f6a2336fd" y="310.68817"/>
     <use style="fill:#ccb974;stroke:#1a1a1a;" x="139.331864" xlink:href="#m3f6a2336fd" y="328.145975"/>
     <use style="fill:#ccb974;stroke:#1a1a1a;" x="143.038227" xlink:href="#m3f6a2336fd" y="318.438762"/>
     <use style="fill:#ccb974;stroke:#1a1a1a;" x="146.744591" xlink:href="#m3f6a2336fd" y="269.522514"/>
     <use style="fill:#ccb974;stroke:#1a1a1a;" x="150.450955" xlink:href="#m3f6a2336fd" y="419.629706"/>
     <use style="fill:#ccb974;stroke:#1a1a1a;" x="154.157318" xlink:href="#m3f6a2336fd" y="324.326998"/>
     <use style="fill:#ccb974;stroke:#1a1a1a;" x="157.863682" xlink:href="#m3f6a2336fd" y="161.681336"/>
     <use style="fill:#ccb974;stroke:#1a1a1a;" x="161.570045" xlink:href="#m3f6a2336fd" y="131.64908"/>
     <use style="fill:#ccb974;stroke:#1a1a1a;" x="165.276409" xlink:href="#m3f6a2336fd" y="328.216387"/>
     <use style="fill:#ccb974;stroke:#1a1a1a;" x="168.982773" xlink:href="#m3f6a2336fd" y="338.544177"/>
     <use style="fill:#ccb974;stroke:#1a1a1a;" x="172.689136" xlink:href="#m3f6a2336fd" y="174.978113"/>
     <use style="fill:#ccb974;stroke:#1a1a1a;" x="176.3955" xlink:href="#m3f6a2336fd" y="207.566825"/>
     <use style="fill:#ccb974;stroke:#1a1a1a;" x="180.101864" xlink:href="#m3f6a2336fd" y="434.425222"/>
     <use style="fill:#ccb974;stroke:#1a1a1a;" x="183.808227" xlink:href="#m3f6a2336fd" y="338.629974"/>
     <use style="fill:#ccb974;stroke:#1a1a1a;" x="187.514591" xlink:href="#m3f6a2336fd" y="259.71506"/>
     <use style="fill:#ccb974;stroke:#1a1a1a;" x="191.220955" xlink:href="#m3f6a2336fd" y="346.091398"/>
     <use style="fill:#ccb974;stroke:#1a1a1a;" x="194.927318" xlink:href="#m3f6a2336fd" y="280.756199"/>
     <use style="fill:#ccb974;stroke:#1a1a1a;" x="198.633682" xlink:href="#m3f6a2336fd" y="430.072122"/>
     <use style="fill:#ccb974;stroke:#1a1a1a;" x="202.340045" xlink:href="#m3f6a2336fd" y="365.600351"/>
     <use style="fill:#ccb974;stroke:#1a1a1a;" x="206.046409" xlink:href="#m3f6a2336fd" y="326.684231"/>
     <use style="fill:#ccb974;stroke:#1a1a1a;" x="209.752773" xlink:href="#m3f6a2336fd" y="339.015163"/>
     <use style="fill:#ccb974;stroke:#1a1a1a;" x="213.459136" xlink:href="#m3f6a2336fd" y="253.099944"/>
     <use style="fill:#ccb974;stroke:#1a1a1a;" x="217.1655" xlink:href="#m3f6a2336fd" y="306.023993"/>
     <use style="fill:#ccb974;stroke:#1a1a1a;" x="220.871864" xlink:href="#m3f6a2336fd" y="395.974922"/>
     <use style="fill:#ccb974;stroke:#1a1a1a;" x="224.578227" xlink:href="#m3f6a2336fd" y="371.072565"/>
     <use style="fill:#ccb974;stroke:#1a1a1a;" x="228.284591" xlink:href="#m3f6a2336fd" y="229.269162"/>
     <use style="fill:#ccb974;stroke:#1a1a1a;" x="231.990955" xlink:href="#m3f6a2336fd" y="187.117513"/>
     <use style="fill:#ccb974;stroke:#1a1a1a;" x="235.697318" xlink:href="#m3f6a2336fd" y="205.267512"/>
     <use style="fill:#ccb974;stroke:#1a1a1a;" x="239.403682" xlink:href="#m3f6a2336fd" y="184.674169"/>
     <use style="fill:#ccb974;stroke:#1a1a1a;" x="243.110045" xlink:href="#m3f6a2336fd" y="300.919413"/>
     <use style="fill:#ccb974;stroke:#1a1a1a;" x="246.816409" xlink:href="#m3f6a2336fd" y="258.494367"/>
     <use style="fill:#ccb974;stroke:#1a1a1a;" x="250.522773" xlink:href="#m3f6a2336fd" y="267.65752"/>
     <use style="fill:#ccb974;stroke:#1a1a1a;" x="254.229136" xlink:href="#m3f6a2336fd" y="463.603009"/>
     <use style="fill:#ccb974;stroke:#1a1a1a;" x="257.9355" xlink:href="#m3f6a2336fd" y="193.589987"/>
     <use style="fill:#ccb974;stroke:#1a1a1a;" x="261.641864" xlink:href="#m3f6a2336fd" y="282.997157"/>
     <use style="fill:#ccb974;stroke:#1a1a1a;" x="265.348227" xlink:href="#m3f6a2336fd" y="406.509251"/>
     <use style="fill:#ccb974;stroke:#1a1a1a;" x="269.054591" xlink:href="#m3f6a2336fd" y="464.968072"/>
     <use style="fill:#ccb974;stroke:#1a1a1a;" x="272.760955" xlink:href="#m3f6a2336fd" y="318.358957"/>
     <use style="fill:#ccb974;stroke:#1a1a1a;" x="276.467318" xlink:href="#m3f6a2336fd" y="276.801929"/>
     <use style="fill:#ccb974;stroke:#1a1a1a;" x="280.173682" xlink:href="#m3f6a2336fd" y="346.614398"/>
     <use style="fill:#ccb974;stroke:#1a1a1a;" x="283.880045" xlink:href="#m3f6a2336fd" y="198.458252"/>
     <use style="fill:#ccb974;stroke:#1a1a1a;" x="287.586409" xlink:href="#m3f6a2336fd" y="298.726458"/>
     <use style="fill:#ccb974;stroke:#1a1a1a;" x="291.292773" xlink:href="#m3f6a2336fd" y="445.488815"/>
     <use style="fill:#ccb974;stroke:#1a1a1a;" x="294.999136" xlink:href="#m3f6a2336fd" y="239.941514"/>
     <use style="fill:#ccb974;stroke:#1a1a1a;" x="298.7055" xlink:href="#m3f6a2336fd" y="400.875535"/>
     <use style="fill:#ccb974;stroke:#1a1a1a;" x="302.411864" xlink:href="#m3f6a2336fd" y="371.674389"/>
     <use style="fill:#ccb974;stroke:#1a1a1a;" x="306.118227" xlink:href="#m3f6a2336fd" y="291.359383"/>
     <use style="fill:#ccb974;stroke:#1a1a1a;" x="309.824591" xlink:href="#m3f6a2336fd" y="447.755642"/>
     <use style="fill:#ccb974;stroke:#1a1a1a;" x="313.530955" xlink:href="#m3f6a2336fd" y="273.356624"/>
     <use style="fill:#ccb974;stroke:#1a1a1a;" x="317.237318" xlink:href="#m3f6a2336fd" y="421.744715"/>
     <use style="fill:#ccb974;stroke:#1a1a1a;" x="320.943682" xlink:href="#m3f6a2336fd" y="403.398885"/>
     <use style="fill:#ccb974;stroke:#1a1a1a;" x="324.650045" xlink:href="#m3f6a2336fd" y="250.598163"/>
     <use style="fill:#ccb974;stroke:#1a1a1a;" x="328.356409" xlink:href="#m3f6a2336fd" y="425.260804"/>
     <use style="fill:#ccb974;stroke:#1a1a1a;" x="332.062773" xlink:href="#m3f6a2336fd" y="442.595262"/>
     <use style="fill:#ccb974;stroke:#1a1a1a;" x="335.769136" xlink:href="#m3f6a2336fd" y="282.786878"/>
     <use style="fill:#ccb974;stroke:#1a1a1a;" x="339.4755" xlink:href="#m3f6a2336fd" y="442.121029"/>
     <use style="fill:#ccb974;stroke:#1a1a1a;" x="343.181864" xlink:href="#m3f6a2336fd" y="344.770423"/>
     <use style="fill:#ccb974;stroke:#1a1a1a;" x="346.888227" xlink:href="#m3f6a2336fd" y="342.396886"/>
     <use style="fill:#ccb974;stroke:#1a1a1a;" x="350.594591" xlink:href="#m3f6a2336fd" y="263.396386"/>
     <use style="fill:#ccb974;stroke:#1a1a1a;" x="354.300955" xlink:href="#m3f6a2336fd" y="294.2162"/>
     <use style="fill:#ccb974;stroke:#1a1a1a;" x="358.007318" xlink:href="#m3f6a2336fd" y="391.667071"/>
     <use style="fill:#ccb974;stroke:#1a1a1a;" x="361.713682" xlink:href="#m3f6a2336fd" y="348.684034"/>
     <use style="fill:#ccb974;stroke:#1a1a1a;" x="365.420045" xlink:href="#m3f6a2336fd" y="399.698229"/>
     <use style="fill:#ccb974;stroke:#1a1a1a;" x="369.126409" xlink:href="#m3f6a2336fd" y="422.492029"/>
     <use style="fill:#ccb974;stroke:#1a1a1a;" x="372.832773" xlink:href="#m3f6a2336fd" y="398.555643"/>
     <use style="fill:#ccb974;stroke:#1a1a1a;" x="376.539136" xlink:href="#m3f6a2336fd" y="424.295309"/>
     <use style="fill:#ccb974;stroke:#1a1a1a;" x="380.2455" xlink:href="#m3f6a2336fd" y="369.451283"/>
     <use style="fill:#ccb974;stroke:#1a1a1a;" x="383.951864" xlink:href="#m3f6a2336fd" y="367.94586"/>
     <use style="fill:#ccb974;stroke:#1a1a1a;" x="387.658227" xlink:href="#m3f6a2336fd" y="379.455899"/>
     <use style="fill:#ccb974;stroke:#1a1a1a;" x="391.364591" xlink:href="#m3f6a2336fd" y="310.80909"/>
     <use style="fill:#ccb974;stroke:#1a1a1a;" x="395.070955" xlink:href="#m3f6a2336fd" y="400.640156"/>
     <use style="fill:#ccb974;stroke:#1a1a1a;" x="398.777318" xlink:href="#m3f6a2336fd" y="292.832783"/>
     <use style="fill:#ccb974;stroke:#1a1a1a;" x="402.483682" xlink:href="#m3f6a2336fd" y="391.311185"/>
     <use style="fill:#ccb974;stroke:#1a1a1a;" x="406.190045" xlink:href="#m3f6a2336fd" y="410.818449"/>
     <use style="fill:#ccb974;stroke:#1a1a1a;" x="409.896409" xlink:href="#m3f6a2336fd" y="300.159108"/>
     <use style="fill:#ccb974;stroke:#1a1a1a;" x="413.602773" xlink:href="#m3f6a2336fd" y="400.74457"/>
     <use style="fill:#ccb974;stroke:#1a1a1a;" x="417.309136" xlink:href="#m3f6a2336fd" y="383.48822"/>
     <use style="fill:#ccb974;stroke:#1a1a1a;" x="421.0155" xlink:href="#m3f6a2336fd" y="379.314054"/>
     <use style="fill:#ccb974;stroke:#1a1a1a;" x="424.721864" xlink:href="#m3f6a2336fd" y="357.188446"/>
     <use style="fill:#ccb974;stroke:#1a1a1a;" x="428.428227" xlink:href="#m3f6a2336fd" y="337.79421"/>
     <use style="fill:#ccb974;stroke:#1a1a1a;" x="432.134591" xlink:href="#m3f6a2336fd" y="369.170668"/>
     <use style="fill:#ccb974;stroke:#1a1a1a;" x="435.840955" xlink:href="#m3f6a2336fd" y="333.713952"/>
     <use style="fill:#ccb974;stroke:#1a1a1a;" x="439.547318" xlink:href="#m3f6a2336fd" y="312.652865"/>
     <use style="fill:#ccb974;stroke:#1a1a1a;" x="443.253682" xlink:href="#m3f6a2336fd" y="336.343623"/>
     <use style="fill:#ccb974;stroke:#1a1a1a;" x="446.960045" xlink:href="#m3f6a2336fd" y="375.66779"/>
     <use style="fill:#ccb974;stroke:#1a1a1a;" x="450.666409" xlink:href="#m3f6a2336fd" y="382.577132"/>
     <use style="fill:#ccb974;stroke:#1a1a1a;" x="454.372773" xlink:href="#m3f6a2336fd" y="382.344378"/>
     <use style="fill:#ccb974;stroke:#1a1a1a;" x="458.079136" xlink:href="#m3f6a2336fd" y="326.844797"/>
     <use style="fill:#ccb974;stroke:#1a1a1a;" x="461.7855" xlink:href="#m3f6a2336fd" y="355.219717"/>
     <use style="fill:#ccb974;stroke:#1a1a1a;" x="465.491864" xlink:href="#m3f6a2336fd" y="301.272406"/>
     <use style="fill:#ccb974;stroke:#1a1a1a;" x="469.198227" xlink:href="#m3f6a2336fd" y="320.669817"/>
     <use style="fill:#ccb974;stroke:#1a1a1a;" x="472.904591" xlink:href="#m3f6a2336fd" y="324.106582"/>
     <use style="fill:#ccb974;stroke:#1a1a1a;" x="476.610955" xlink:href="#m3f6a2336fd" y="343.925126"/>
     <use style="fill:#ccb974;stroke:#1a1a1a;" x="480.317318" xlink:href="#m3f6a2336fd" y="290.620679"/>
     <use style="fill:#ccb974;stroke:#1a1a1a;" x="484.023682" xlink:href="#m3f6a2336fd" y="331.853437"/>
     <use style="fill:#ccb974;stroke:#1a1a1a;" x="487.730045" xlink:href="#m3f6a2336fd" y="297.135513"/>
     <use style="fill:#ccb974;stroke:#1a1a1a;" x="491.436409" xlink:href="#m3f6a2336fd" y="327.793099"/>
     <use style="fill:#ccb974;stroke:#1a1a1a;" x="495.142773" xlink:href="#m3f6a2336fd" y="292.634756"/>
     <use style="fill:#ccb974;stroke:#1a1a1a;" x="498.849136" xlink:href="#m3f6a2336fd" y="295.914272"/>
     <use style="fill:#ccb974;stroke:#1a1a1a;" x="502.5555" xlink:href="#m3f6a2336fd" y="355.737471"/>
    </g>
   </g>
   <g id="patch_3">
    <path d="M 74.4705 534.3561 
L 74.4705 45.1161 
" style="fill:none;stroke:#262626;stroke-linecap:square;stroke-linejoin:miter;stroke-width:1.25;"/>
   </g>
   <g id="patch_4">
    <path d="M 563.7105 534.3561 
L 563.7105 45.1161 
" style="fill:none;stroke:#262626;stroke-linecap:square;stroke-linejoin:miter;stroke-width:1.25;"/>
   </g>
   <g id="patch_5">
    <path d="M 74.4705 534.3561 
L 563.7105 534.3561 
" style="fill:none;stroke:#262626;stroke-linecap:square;stroke-linejoin:miter;stroke-width:1.25;"/>
   </g>
   <g id="patch_6">
    <path d="M 74.4705 45.1161 
L 563.7105 45.1161 
" style="fill:none;stroke:#262626;stroke-linecap:square;stroke-linejoin:miter;stroke-width:1.25;"/>
   </g>
   <g id="text_25">
    <g id="patch_7">
     <path d="M 93.373937 587.173425 
L 177.877062 587.173425 
L 177.877062 569.4953 
L 93.373937 569.4953 
z
" style="fill:#ffffff;stroke:#ffffff;stroke-linejoin:miter;"/>
    </g>
    <!-- Minor tick label -->
    <defs>
     <path d="M 9.8125 72.90625 
L 24.515625 72.90625 
L 43.109375 23.296875 
L 61.8125 72.90625 
L 76.515625 72.90625 
L 76.515625 0 
L 66.890625 0 
L 66.890625 64.015625 
L 48.09375 14.015625 
L 38.1875 14.015625 
L 19.390625 64.015625 
L 19.390625 0 
L 9.8125 0 
z
" id="DejaVuSans-77"/>
     <path d="M 54.890625 33.015625 
L 54.890625 0 
L 45.90625 0 
L 45.90625 32.71875 
Q 45.90625 40.484375 42.875 44.328125 
Q 39.84375 48.1875 33.796875 48.1875 
Q 26.515625 48.1875 22.3125 43.546875 
Q 18.109375 38.921875 18.109375 30.90625 
L 18.109375 0 
L 9.078125 0 
L 9.078125 54.6875 
L 18.109375 54.6875 
L 18.109375 46.1875 
Q 21.34375 51.125 25.703125 53.5625 
Q 30.078125 56 35.796875 56 
Q 45.21875 56 50.046875 50.171875 
Q 54.890625 44.34375 54.890625 33.015625 
z
" id="DejaVuSans-110"/>
     <path d="M 30.609375 48.390625 
Q 23.390625 48.390625 19.1875 42.75 
Q 14.984375 37.109375 14.984375 27.296875 
Q 14.984375 17.484375 19.15625 11.84375 
Q 23.34375 6.203125 30.609375 6.203125 
Q 37.796875 6.203125 41.984375 11.859375 
Q 46.1875 17.53125 46.1875 27.296875 
Q 46.1875 37.015625 41.984375 42.703125 
Q 37.796875 48.390625 30.609375 48.390625 
z
M 30.609375 56 
Q 42.328125 56 49.015625 48.375 
Q 55.71875 40.765625 55.71875 27.296875 
Q 55.71875 13.875 49.015625 6.21875 
Q 42.328125 -1.421875 30.609375 -1.421875 
Q 18.84375 -1.421875 12.171875 6.21875 
Q 5.515625 13.875 5.515625 27.296875 
Q 5.515625 40.765625 12.171875 48.375 
Q 18.84375 56 30.609375 56 
z
" id="DejaVuSans-111"/>
     <path d="M 41.109375 46.296875 
Q 39.59375 47.171875 37.8125 47.578125 
Q 36.03125 48 33.890625 48 
Q 26.265625 48 22.1875 43.046875 
Q 18.109375 38.09375 18.109375 28.8125 
L 18.109375 0 
L 9.078125 0 
L 9.078125 54.6875 
L 18.109375 54.6875 
L 18.109375 46.1875 
Q 20.953125 51.171875 25.484375 53.578125 
Q 30.03125 56 36.53125 56 
Q 37.453125 56 38.578125 55.875 
Q 39.703125 55.765625 41.0625 55.515625 
z
" id="DejaVuSans-114"/>
     <path d="M 18.3125 70.21875 
L 18.3125 54.6875 
L 36.8125 54.6875 
L 36.8125 47.703125 
L 18.3125 47.703125 
L 18.3125 18.015625 
Q 18.3125 11.328125 20.140625 9.421875 
Q 21.96875 7.515625 27.59375 7.515625 
L 36.8125 7.515625 
L 36.8125 0 
L 27.59375 0 
Q 17.1875 0 13.234375 3.875 
Q 9.28125 7.765625 9.28125 18.015625 
L 9.28125 47.703125 
L 2.6875 47.703125 
L 2.6875 54.6875 
L 9.28125 54.6875 
L 9.28125 70.21875 
z
" id="DejaVuSans-116"/>
     <path d="M 48.78125 52.59375 
L 48.78125 44.1875 
Q 44.96875 46.296875 41.140625 47.34375 
Q 37.3125 48.390625 33.40625 48.390625 
Q 24.65625 48.390625 19.8125 42.84375 
Q 14.984375 37.3125 14.984375 27.296875 
Q 14.984375 17.28125 19.8125 11.734375 
Q 24.65625 6.203125 33.40625 6.203125 
Q 37.3125 6.203125 41.140625 7.25 
Q 44.96875 8.296875 48.78125 10.40625 
L 48.78125 2.09375 
Q 45.015625 0.34375 40.984375 -0.53125 
Q 36.96875 -1.421875 32.421875 -1.421875 
Q 20.0625 -1.421875 12.78125 6.34375 
Q 5.515625 14.109375 5.515625 27.296875 
Q 5.515625 40.671875 12.859375 48.328125 
Q 20.21875 56 33.015625 56 
Q 37.15625 56 41.109375 55.140625 
Q 45.0625 54.296875 48.78125 52.59375 
z
" id="DejaVuSans-99"/>
     <path d="M 9.078125 75.984375 
L 18.109375 75.984375 
L 18.109375 31.109375 
L 44.921875 54.6875 
L 56.390625 54.6875 
L 27.390625 29.109375 
L 57.625 0 
L 45.90625 0 
L 18.109375 26.703125 
L 18.109375 0 
L 9.078125 0 
z
" id="DejaVuSans-107"/>
    </defs>
    <g style="fill:#0000ff;" transform="translate(97.373937 581.093737)scale(0.1 -0.1)">
     <use xlink:href="#DejaVuSans-77"/>
     <use x="86.279297" xlink:href="#DejaVuSans-105"/>
     <use x="114.0625" xlink:href="#DejaVuSans-110"/>
     <use x="177.441406" xlink:href="#DejaVuSans-111"/>
     <use x="238.623047" xlink:href="#DejaVuSans-114"/>
     <use x="279.736328" xlink:href="#DejaVuSans-32"/>
     <use x="311.523438" xlink:href="#DejaVuSans-116"/>
     <use x="350.732422" xlink:href="#DejaVuSans-105"/>
     <use x="378.515625" xlink:href="#DejaVuSans-99"/>
     <use x="433.496094" xlink:href="#DejaVuSans-107"/>
     <use x="491.40625" xlink:href="#DejaVuSans-32"/>
     <use x="523.193359" xlink:href="#DejaVuSans-108"/>
     <use x="550.976562" xlink:href="#DejaVuSans-97"/>
     <use x="612.255859" xlink:href="#DejaVuSans-98"/>
     <use x="675.732422" xlink:href="#DejaVuSans-101"/>
     <use x="737.255859" xlink:href="#DejaVuSans-108"/>
    </g>
   </g>
   <g id="text_26">
    <g id="patch_8">
     <path d="M 49.674956 83.256225 
L 106.604644 83.256225 
L 106.604644 65.5781 
L 49.674956 65.5781 
z
" style="fill:#ffffff;stroke:#ffffff;stroke-linejoin:miter;"/>
    </g>
    <!-- Major tick -->
    <defs>
     <path d="M 9.421875 54.6875 
L 18.40625 54.6875 
L 18.40625 -0.984375 
Q 18.40625 -11.421875 14.421875 -16.109375 
Q 10.453125 -20.796875 1.609375 -20.796875 
L -1.8125 -20.796875 
L -1.8125 -13.1875 
L 0.59375 -13.1875 
Q 5.71875 -13.1875 7.5625 -10.8125 
Q 9.421875 -8.453125 9.421875 -0.984375 
z
M 9.421875 75.984375 
L 18.40625 75.984375 
L 18.40625 64.59375 
L 9.421875 64.59375 
z
" id="DejaVuSans-106"/>
    </defs>
    <g style="fill:#0000ff;" transform="translate(53.674956 77.176537)scale(0.1 -0.1)">
     <use xlink:href="#DejaVuSans-77"/>
     <use x="86.279297" xlink:href="#DejaVuSans-97"/>
     <use x="147.558594" xlink:href="#DejaVuSans-106"/>
     <use x="175.341797" xlink:href="#DejaVuSans-111"/>
     <use x="236.523438" xlink:href="#DejaVuSans-114"/>
     <use x="277.636719" xlink:href="#DejaVuSans-32"/>
     <use x="309.423828" xlink:href="#DejaVuSans-116"/>
     <use x="348.632812" xlink:href="#DejaVuSans-105"/>
     <use x="376.416016" xlink:href="#DejaVuSans-99"/>
     <use x="431.396484" xlink:href="#DejaVuSans-107"/>
    </g>
   </g>
   <g id="text_27">
    <g id="patch_9">
     <path d="M 45.900969 144.411225 
L 103.040031 144.411225 
L 103.040031 126.7331 
L 45.900969 126.7331 
z
" style="fill:#ffffff;stroke:#ffffff;stroke-linejoin:miter;"/>
    </g>
    <!-- Minor tick -->
    <g style="fill:#0000ff;" transform="translate(49.900969 138.331537)scale(0.1 -0.1)">
     <use xlink:href="#DejaVuSans-77"/>
     <use x="86.279297" xlink:href="#DejaVuSans-105"/>
     <use x="114.0625" xlink:href="#DejaVuSans-110"/>
     <use x="177.441406" xlink:href="#DejaVuSans-111"/>
     <use x="238.623047" xlink:href="#DejaVuSans-114"/>
     <use x="279.736328" xlink:href="#DejaVuSans-32"/>
     <use x="311.523438" xlink:href="#DejaVuSans-116"/>
     <use x="350.732422" xlink:href="#DejaVuSans-105"/>
     <use x="378.515625" xlink:href="#DejaVuSans-99"/>
     <use x="433.496094" xlink:href="#DejaVuSans-107"/>
    </g>
   </g>
   <g id="text_28">
    <g id="patch_10">
     <path d="M 13.977125 205.566225 
L 98.270875 205.566225 
L 98.270875 187.8881 
L 13.977125 187.8881 
z
" style="fill:#ffffff;stroke:#ffffff;stroke-linejoin:miter;"/>
    </g>
    <!-- Major tick label -->
    <g style="fill:#0000ff;" transform="translate(17.977125 199.486537)scale(0.1 -0.1)">
     <use xlink:href="#DejaVuSans-77"/>
     <use x="86.279297" xlink:href="#DejaVuSans-97"/>
     <use x="147.558594" xlink:href="#DejaVuSans-106"/>
     <use x="175.341797" xlink:href="#DejaVuSans-111"/>
     <use x="236.523438" xlink:href="#DejaVuSans-114"/>
     <use x="277.636719" xlink:href="#DejaVuSans-32"/>
     <use x="309.423828" xlink:href="#DejaVuSans-116"/>
     <use x="348.632812" xlink:href="#DejaVuSans-105"/>
     <use x="376.416016" xlink:href="#DejaVuSans-99"/>
     <use x="431.396484" xlink:href="#DejaVuSans-107"/>
     <use x="489.306641" xlink:href="#DejaVuSans-32"/>
     <use x="521.09375" xlink:href="#DejaVuSans-108"/>
     <use x="548.876953" xlink:href="#DejaVuSans-97"/>
     <use x="610.15625" xlink:href="#DejaVuSans-98"/>
     <use x="673.632812" xlink:href="#DejaVuSans-101"/>
     <use x="735.15625" xlink:href="#DejaVuSans-108"/>
    </g>
   </g>
   <g id="text_29">
    <g id="patch_11">
     <path d="M 261.915219 603.073725 
L 327.341781 603.073725 
L 327.341781 585.3956 
L 261.915219 585.3956 
z
" style="fill:#ffffff;stroke:#ffffff;stroke-linejoin:miter;"/>
    </g>
    <!-- X axis label -->
    <g style="fill:#0000ff;" transform="translate(265.915219 596.994037)scale(0.1 -0.1)">
     <use xlink:href="#DejaVuSans-88"/>
     <use x="68.505859" xlink:href="#DejaVuSans-32"/>
     <use x="100.292969" xlink:href="#DejaVuSans-97"/>
     <use x="161.572266" xlink:href="#DejaVuSans-120"/>
     <use x="220.751953" xlink:href="#DejaVuSans-105"/>
     <use x="248.535156" xlink:href="#DejaVuSans-115"/>
     <use x="300.634766" xlink:href="#DejaVuSans-32"/>
     <use x="332.421875" xlink:href="#DejaVuSans-108"/>
     <use x="360.205078" xlink:href="#DejaVuSans-97"/>
     <use x="421.484375" xlink:href="#DejaVuSans-98"/>
     <use x="484.960938" xlink:href="#DejaVuSans-101"/>
     <use x="546.484375" xlink:href="#DejaVuSans-108"/>
    </g>
   </g>
   <g id="text_30">
    <g id="patch_12">
     <path d="M 9.104612 352.338225 
L 73.788987 352.338225 
L 73.788987 334.6601 
L 9.104612 334.6601 
z
" style="fill:#ffffff;stroke:#ffffff;stroke-linejoin:miter;"/>
    </g>
    <!-- Y axis label -->
    <g style="fill:#0000ff;" transform="translate(13.104612 346.258537)scale(0.1 -0.1)">
     <use xlink:href="#DejaVuSans-89"/>
     <use x="61.083984" xlink:href="#DejaVuSans-32"/>
     <use x="92.871094" xlink:href="#DejaVuSans-97"/>
     <use x="154.150391" xlink:href="#DejaVuSans-120"/>
     <use x="213.330078" xlink:href="#DejaVuSans-105"/>
     <use x="241.113281" xlink:href="#DejaVuSans-115"/>
     <use x="293.212891" xlink:href="#DejaVuSans-32"/>
     <use x="325" xlink:href="#DejaVuSans-108"/>
     <use x="352.783203" xlink:href="#DejaVuSans-97"/>
     <use x="414.0625" xlink:href="#DejaVuSans-98"/>
     <use x="477.539062" xlink:href="#DejaVuSans-101"/>
     <use x="539.0625" xlink:href="#DejaVuSans-108"/>
    </g>
   </g>
   <g id="text_31">
    <g id="patch_13">
     <path d="M 426.907531 205.566225 
L 455.893469 205.566225 
L 455.893469 187.8881 
L 426.907531 187.8881 
z
" style="fill:#ffffff;stroke:#ffffff;stroke-linejoin:miter;"/>
    </g>
    <!-- Grid -->
    <defs>
     <path d="M 59.515625 10.40625 
L 59.515625 29.984375 
L 43.40625 29.984375 
L 43.40625 38.09375 
L 69.28125 38.09375 
L 69.28125 6.78125 
Q 63.578125 2.734375 56.6875 0.65625 
Q 49.8125 -1.421875 42 -1.421875 
Q 24.90625 -1.421875 15.25 8.5625 
Q 5.609375 18.5625 5.609375 36.375 
Q 5.609375 54.25 15.25 64.234375 
Q 24.90625 74.21875 42 74.21875 
Q 49.125 74.21875 55.546875 72.453125 
Q 61.96875 70.703125 67.390625 67.28125 
L 67.390625 56.78125 
Q 61.921875 61.421875 55.765625 63.765625 
Q 49.609375 66.109375 42.828125 66.109375 
Q 29.4375 66.109375 22.71875 58.640625 
Q 16.015625 51.171875 16.015625 36.375 
Q 16.015625 21.625 22.71875 14.15625 
Q 29.4375 6.6875 42.828125 6.6875 
Q 48.046875 6.6875 52.140625 7.59375 
Q 56.25 8.5 59.515625 10.40625 
z
" id="DejaVuSans-71"/>
     <path d="M 45.40625 46.390625 
L 45.40625 75.984375 
L 54.390625 75.984375 
L 54.390625 0 
L 45.40625 0 
L 45.40625 8.203125 
Q 42.578125 3.328125 38.25 0.953125 
Q 33.9375 -1.421875 27.875 -1.421875 
Q 17.96875 -1.421875 11.734375 6.484375 
Q 5.515625 14.40625 5.515625 27.296875 
Q 5.515625 40.1875 11.734375 48.09375 
Q 17.96875 56 27.875 56 
Q 33.9375 56 38.25 53.625 
Q 42.578125 51.265625 45.40625 46.390625 
z
M 14.796875 27.296875 
Q 14.796875 17.390625 18.875 11.75 
Q 22.953125 6.109375 30.078125 6.109375 
Q 37.203125 6.109375 41.296875 11.75 
Q 45.40625 17.390625 45.40625 27.296875 
Q 45.40625 37.203125 41.296875 42.84375 
Q 37.203125 48.484375 30.078125 48.484375 
Q 22.953125 48.484375 18.875 42.84375 
Q 14.796875 37.203125 14.796875 27.296875 
z
" id="DejaVuSans-100"/>
    </defs>
    <g style="fill:#0000ff;" transform="translate(430.907531 199.486537)scale(0.1 -0.1)">
     <use xlink:href="#DejaVuSans-71"/>
     <use x="77.490234" xlink:href="#DejaVuSans-114"/>
     <use x="118.603516" xlink:href="#DejaVuSans-105"/>
     <use x="146.386719" xlink:href="#DejaVuSans-100"/>
    </g>
   </g>
   <g id="text_32">
    <g id="patch_14">
     <path d="M 260.416125 241.226038 
L 316.609875 241.226038 
L 316.609875 212.3501 
L 260.416125 212.3501 
z
" style="fill:#ffffff;stroke:#ffffff;stroke-linejoin:miter;"/>
    </g>
    <!-- Line -->
    <defs>
     <path d="M 9.8125 72.90625 
L 19.671875 72.90625 
L 19.671875 8.296875 
L 55.171875 8.296875 
L 55.171875 0 
L 9.8125 0 
z
" id="DejaVuSans-76"/>
    </defs>
    <g style="fill:#0000ff;" transform="translate(278.092688 223.948537)scale(0.1 -0.1)">
     <use xlink:href="#DejaVuSans-76"/>
     <use x="55.712891" xlink:href="#DejaVuSans-105"/>
     <use x="83.496094" xlink:href="#DejaVuSans-110"/>
     <use x="146.875" xlink:href="#DejaVuSans-101"/>
    </g>
    <!-- (line plot) -->
    <defs>
     <path d="M 31 75.875 
Q 24.46875 64.65625 21.28125 53.65625 
Q 18.109375 42.671875 18.109375 31.390625 
Q 18.109375 20.125 21.3125 9.0625 
Q 24.515625 -2 31 -13.1875 
L 23.1875 -13.1875 
Q 15.875 -1.703125 12.234375 9.375 
Q 8.59375 20.453125 8.59375 31.390625 
Q 8.59375 42.28125 12.203125 53.3125 
Q 15.828125 64.359375 23.1875 75.875 
z
" id="DejaVuSans-40"/>
     <path d="M 18.109375 8.203125 
L 18.109375 -20.796875 
L 9.078125 -20.796875 
L 9.078125 54.6875 
L 18.109375 54.6875 
L 18.109375 46.390625 
Q 20.953125 51.265625 25.265625 53.625 
Q 29.59375 56 35.59375 56 
Q 45.5625 56 51.78125 48.09375 
Q 58.015625 40.1875 58.015625 27.296875 
Q 58.015625 14.40625 51.78125 6.484375 
Q 45.5625 -1.421875 35.59375 -1.421875 
Q 29.59375 -1.421875 25.265625 0.953125 
Q 20.953125 3.328125 18.109375 8.203125 
z
M 48.6875 27.296875 
Q 48.6875 37.203125 44.609375 42.84375 
Q 40.53125 48.484375 33.40625 48.484375 
Q 26.265625 48.484375 22.1875 42.84375 
Q 18.109375 37.203125 18.109375 27.296875 
Q 18.109375 17.390625 22.1875 11.75 
Q 26.265625 6.109375 33.40625 6.109375 
Q 40.53125 6.109375 44.609375 11.75 
Q 48.6875 17.390625 48.6875 27.296875 
z
" id="DejaVuSans-112"/>
     <path d="M 8.015625 75.875 
L 15.828125 75.875 
Q 23.140625 64.359375 26.78125 53.3125 
Q 30.421875 42.28125 30.421875 31.390625 
Q 30.421875 20.453125 26.78125 9.375 
Q 23.140625 -1.703125 15.828125 -13.1875 
L 8.015625 -13.1875 
Q 14.5 -2 17.703125 9.0625 
Q 20.90625 20.125 20.90625 31.390625 
Q 20.90625 42.671875 17.703125 53.65625 
Q 14.5 64.65625 8.015625 75.875 
z
" id="DejaVuSans-41"/>
    </defs>
    <g style="fill:#0000ff;" transform="translate(264.416125 235.14635)scale(0.1 -0.1)">
     <use xlink:href="#DejaVuSans-40"/>
     <use x="39.013672" xlink:href="#DejaVuSans-108"/>
     <use x="66.796875" xlink:href="#DejaVuSans-105"/>
     <use x="94.580078" xlink:href="#DejaVuSans-110"/>
     <use x="157.958984" xlink:href="#DejaVuSans-101"/>
     <use x="219.482422" xlink:href="#DejaVuSans-32"/>
     <use x="251.269531" xlink:href="#DejaVuSans-112"/>
     <use x="314.746094" xlink:href="#DejaVuSans-108"/>
     <use x="342.529297" xlink:href="#DejaVuSans-111"/>
     <use x="403.710938" xlink:href="#DejaVuSans-116"/>
     <use x="442.919922" xlink:href="#DejaVuSans-41"/>
    </g>
   </g>
   <g id="text_33">
    <g id="patch_15">
     <path d="M 193.145625 510.308038 
L 249.339375 510.308038 
L 249.339375 481.4321 
L 193.145625 481.4321 
z
" style="fill:#ffffff;stroke:#ffffff;stroke-linejoin:miter;"/>
    </g>
    <!-- Line -->
    <g style="fill:#0000ff;" transform="translate(210.822188 493.030538)scale(0.1 -0.1)">
     <use xlink:href="#DejaVuSans-76"/>
     <use x="55.712891" xlink:href="#DejaVuSans-105"/>
     <use x="83.496094" xlink:href="#DejaVuSans-110"/>
     <use x="146.875" xlink:href="#DejaVuSans-101"/>
    </g>
    <!-- (line plot) -->
    <g style="fill:#0000ff;" transform="translate(197.145625 504.22835)scale(0.1 -0.1)">
     <use xlink:href="#DejaVuSans-40"/>
     <use x="39.013672" xlink:href="#DejaVuSans-108"/>
     <use x="66.796875" xlink:href="#DejaVuSans-105"/>
     <use x="94.580078" xlink:href="#DejaVuSans-110"/>
     <use x="157.958984" xlink:href="#DejaVuSans-101"/>
     <use x="219.482422" xlink:href="#DejaVuSans-32"/>
     <use x="251.269531" xlink:href="#DejaVuSans-112"/>
     <use x="314.746094" xlink:href="#DejaVuSans-108"/>
     <use x="342.529297" xlink:href="#DejaVuSans-111"/>
     <use x="403.710938" xlink:href="#DejaVuSans-116"/>
     <use x="442.919922" xlink:href="#DejaVuSans-41"/>
    </g>
   </g>
   <g id="text_34">
    <g id="patch_16">
     <path d="M 429.31875 369.651538 
L 502.40625 369.651538 
L 502.40625 340.7756 
L 429.31875 340.7756 
z
" style="fill:#ffffff;stroke:#ffffff;stroke-linejoin:miter;"/>
    </g>
    <!-- Markers -->
    <g style="fill:#0000ff;" transform="translate(445.799219 352.374037)scale(0.1 -0.1)">
     <use xlink:href="#DejaVuSans-77"/>
     <use x="86.279297" xlink:href="#DejaVuSans-97"/>
     <use x="147.558594" xlink:href="#DejaVuSans-114"/>
     <use x="188.671875" xlink:href="#DejaVuSans-107"/>
     <use x="246.535156" xlink:href="#DejaVuSans-101"/>
     <use x="308.058594" xlink:href="#DejaVuSans-114"/>
     <use x="349.171875" xlink:href="#DejaVuSans-115"/>
    </g>
    <!-- (scatter plot) -->
    <g style="fill:#0000ff;" transform="translate(433.31875 363.57185)scale(0.1 -0.1)">
     <use xlink:href="#DejaVuSans-40"/>
     <use x="39.013672" xlink:href="#DejaVuSans-115"/>
     <use x="91.113281" xlink:href="#DejaVuSans-99"/>
     <use x="146.09375" xlink:href="#DejaVuSans-97"/>
     <use x="207.373047" xlink:href="#DejaVuSans-116"/>
     <use x="246.582031" xlink:href="#DejaVuSans-116"/>
     <use x="285.791016" xlink:href="#DejaVuSans-101"/>
     <use x="347.314453" xlink:href="#DejaVuSans-114"/>
     <use x="388.427734" xlink:href="#DejaVuSans-32"/>
     <use x="420.214844" xlink:href="#DejaVuSans-112"/>
     <use x="483.691406" xlink:href="#DejaVuSans-108"/>
     <use x="511.474609" xlink:href="#DejaVuSans-111"/>
     <use x="572.65625" xlink:href="#DejaVuSans-116"/>
     <use x="611.865234" xlink:href="#DejaVuSans-41"/>
    </g>
   </g>
   <g id="text_35">
    <g id="patch_17">
     <path d="M 255.300094 67.355925 
L 285.032906 67.355925 
L 285.032906 49.6778 
L 255.300094 49.6778 
z
" style="fill:#ffffff;stroke:#ffffff;stroke-linejoin:miter;"/>
    </g>
    <!-- Title -->
    <defs>
     <path d="M -0.296875 72.90625 
L 61.375 72.90625 
L 61.375 64.59375 
L 35.5 64.59375 
L 35.5 0 
L 25.59375 0 
L 25.59375 64.59375 
L -0.296875 64.59375 
z
" id="DejaVuSans-84"/>
    </defs>
    <g style="fill:#0000ff;" transform="translate(259.300094 61.276237)scale(0.1 -0.1)">
     <use xlink:href="#DejaVuSans-84"/>
     <use x="61.037109" xlink:href="#DejaVuSans-105"/>
     <use x="88.820312" xlink:href="#DejaVuSans-116"/>
     <use x="128.029297" xlink:href="#DejaVuSans-108"/>
     <use x="155.8125" xlink:href="#DejaVuSans-101"/>
    </g>
   </g>
   <g id="text_36">
    <g id="patch_18">
     <path d="M 504.562031 107.718225 
L 549.472969 107.718225 
L 549.472969 90.0401 
L 504.562031 90.0401 
z
" style="fill:#ffffff;stroke:#ffffff;stroke-linejoin:miter;"/>
    </g>
    <!-- Legend -->
    <defs>
     <path d="M 45.40625 27.984375 
Q 45.40625 37.75 41.375 43.109375 
Q 37.359375 48.484375 30.078125 48.484375 
Q 22.859375 48.484375 18.828125 43.109375 
Q 14.796875 37.75 14.796875 27.984375 
Q 14.796875 18.265625 18.828125 12.890625 
Q 22.859375 7.515625 30.078125 7.515625 
Q 37.359375 7.515625 41.375 12.890625 
Q 45.40625 18.265625 45.40625 27.984375 
z
M 54.390625 6.78125 
Q 54.390625 -7.171875 48.1875 -13.984375 
Q 42 -20.796875 29.203125 -20.796875 
Q 24.46875 -20.796875 20.265625 -20.09375 
Q 16.0625 -19.390625 12.109375 -17.921875 
L 12.109375 -9.1875 
Q 16.0625 -11.328125 19.921875 -12.34375 
Q 23.78125 -13.375 27.78125 -13.375 
Q 36.625 -13.375 41.015625 -8.765625 
Q 45.40625 -4.15625 45.40625 5.171875 
L 45.40625 9.625 
Q 42.625 4.78125 38.28125 2.390625 
Q 33.9375 0 27.875 0 
Q 17.828125 0 11.671875 7.65625 
Q 5.515625 15.328125 5.515625 27.984375 
Q 5.515625 40.671875 11.671875 48.328125 
Q 17.828125 56 27.875 56 
Q 33.9375 56 38.28125 53.609375 
Q 42.625 51.21875 45.40625 46.390625 
L 45.40625 54.6875 
L 54.390625 54.6875 
z
" id="DejaVuSans-103"/>
    </defs>
    <g style="fill:#0000ff;" transform="translate(508.562031 101.638537)scale(0.1 -0.1)">
     <use xlink:href="#DejaVuSans-76"/>
     <use x="55.697266" xlink:href="#DejaVuSans-101"/>
     <use x="117.220703" xlink:href="#DejaVuSans-103"/>
     <use x="180.697266" xlink:href="#DejaVuSans-101"/>
     <use x="242.220703" xlink:href="#DejaVuSans-110"/>
     <use x="305.599609" xlink:href="#DejaVuSans-100"/>
    </g>
   </g>
   <g id="text_37">
    <g id="patch_19">
     <path d="M 118.163781 483.3166 
L 153.087219 483.3166 
L 153.087219 465.638475 
L 118.163781 465.638475 
z
" style="fill:#ffffff;stroke:#ffffff;stroke-linejoin:miter;"/>
    </g>
    <!-- Axes -->
    <defs>
     <path d="M 53.421875 13.28125 
L 24.03125 13.28125 
L 19.390625 0 
L 0.484375 0 
L 27.484375 72.90625 
L 49.90625 72.90625 
L 76.90625 0 
L 58.015625 0 
z
M 28.71875 26.8125 
L 48.6875 26.8125 
L 38.71875 55.8125 
z
" id="DejaVuSans-Bold-65"/>
     <path d="M 22.21875 27.984375 
L 2.484375 54.6875 
L 21 54.6875 
L 32.171875 38.484375 
L 43.5 54.6875 
L 62.015625 54.6875 
L 42.28125 28.078125 
L 62.984375 0 
L 44.484375 0 
L 32.171875 17.28125 
L 20.015625 0 
L 1.515625 0 
z
" id="DejaVuSans-Bold-120"/>
     <path d="M 62.984375 27.484375 
L 62.984375 22.515625 
L 22.125 22.515625 
Q 22.75 16.359375 26.5625 13.28125 
Q 30.375 10.203125 37.203125 10.203125 
Q 42.71875 10.203125 48.5 11.84375 
Q 54.296875 13.484375 60.40625 16.796875 
L 60.40625 3.328125 
Q 54.203125 0.984375 48 -0.21875 
Q 41.796875 -1.421875 35.59375 -1.421875 
Q 20.75 -1.421875 12.515625 6.125 
Q 4.296875 13.671875 4.296875 27.296875 
Q 4.296875 40.671875 12.375 48.328125 
Q 20.453125 56 34.625 56 
Q 47.515625 56 55.25 48.234375 
Q 62.984375 40.484375 62.984375 27.484375 
z
M 45.015625 33.296875 
Q 45.015625 38.28125 42.109375 41.328125 
Q 39.203125 44.390625 34.515625 44.390625 
Q 29.4375 44.390625 26.265625 41.53125 
Q 23.09375 38.671875 22.3125 33.296875 
z
" id="DejaVuSans-Bold-101"/>
     <path d="M 51.125 52.984375 
L 51.125 39.703125 
Q 45.515625 42.046875 40.28125 43.21875 
Q 35.0625 44.390625 30.421875 44.390625 
Q 25.4375 44.390625 23.015625 43.140625 
Q 20.609375 41.890625 20.609375 39.3125 
Q 20.609375 37.203125 22.4375 36.078125 
Q 24.265625 34.96875 29 34.421875 
L 32.078125 33.984375 
Q 45.515625 32.28125 50.140625 28.375 
Q 54.78125 24.46875 54.78125 16.109375 
Q 54.78125 7.375 48.328125 2.96875 
Q 41.890625 -1.421875 29.109375 -1.421875 
Q 23.6875 -1.421875 17.890625 -0.5625 
Q 12.109375 0.296875 6 2 
L 6 15.28125 
Q 11.234375 12.75 16.71875 11.46875 
Q 22.21875 10.203125 27.875 10.203125 
Q 33.015625 10.203125 35.59375 11.609375 
Q 38.1875 13.03125 38.1875 15.828125 
Q 38.1875 18.171875 36.40625 19.3125 
Q 34.625 20.453125 29.296875 21.09375 
L 26.21875 21.484375 
Q 14.546875 22.953125 9.859375 26.90625 
Q 5.171875 30.859375 5.171875 38.921875 
Q 5.171875 47.609375 11.125 51.796875 
Q 17.09375 56 29.390625 56 
Q 34.234375 56 39.546875 55.265625 
Q 44.875 54.546875 51.125 52.984375 
z
" id="DejaVuSans-Bold-115"/>
    </defs>
    <g style="fill:#00ffff;" transform="translate(122.163781 477.236913)scale(0.1 -0.1)">
     <use xlink:href="#DejaVuSans-Bold-65"/>
     <use x="77.392578" xlink:href="#DejaVuSans-Bold-120"/>
     <use x="141.894531" xlink:href="#DejaVuSans-Bold-101"/>
     <use x="209.716797" xlink:href="#DejaVuSans-Bold-115"/>
    </g>
   </g>
   <g id="text_38">
    <g id="patch_20">
     <path d="M 15.6525 464.9701 
L 59.9025 464.9701 
L 59.9025 447.21385 
L 15.6525 447.21385 
z
" style="fill:#ffffff;stroke:#ffffff;stroke-linejoin:miter;"/>
    </g>
    <!-- Figure -->
    <defs>
     <path d="M 9.1875 72.90625 
L 59.90625 72.90625 
L 59.90625 58.6875 
L 27.984375 58.6875 
L 27.984375 45.125 
L 58.015625 45.125 
L 58.015625 30.90625 
L 27.984375 30.90625 
L 27.984375 0 
L 9.1875 0 
z
" id="DejaVuSans-Bold-70"/>
     <path d="M 8.40625 54.6875 
L 25.875 54.6875 
L 25.875 0 
L 8.40625 0 
z
M 8.40625 75.984375 
L 25.875 75.984375 
L 25.875 61.71875 
L 8.40625 61.71875 
z
" id="DejaVuSans-Bold-105"/>
     <path d="M 45.609375 9.28125 
Q 42 4.5 37.640625 2.25 
Q 33.296875 0 27.59375 0 
Q 17.578125 0 11.03125 7.875 
Q 4.5 15.765625 4.5 27.984375 
Q 4.5 40.234375 11.03125 48.0625 
Q 17.578125 55.90625 27.59375 55.90625 
Q 33.296875 55.90625 37.640625 53.65625 
Q 42 51.421875 45.609375 46.578125 
L 45.609375 54.6875 
L 63.1875 54.6875 
L 63.1875 5.515625 
Q 63.1875 -7.671875 54.859375 -14.625 
Q 46.53125 -21.578125 30.71875 -21.578125 
Q 25.59375 -21.578125 20.796875 -20.796875 
Q 16.015625 -20.015625 11.1875 -18.40625 
L 11.1875 -4.78125 
Q 15.765625 -7.421875 20.15625 -8.71875 
Q 24.5625 -10.015625 29 -10.015625 
Q 37.59375 -10.015625 41.59375 -6.25 
Q 45.609375 -2.484375 45.609375 5.515625 
z
M 34.078125 43.3125 
Q 28.65625 43.3125 25.625 39.296875 
Q 22.609375 35.296875 22.609375 27.984375 
Q 22.609375 20.453125 25.53125 16.578125 
Q 28.46875 12.703125 34.078125 12.703125 
Q 39.546875 12.703125 42.578125 16.703125 
Q 45.609375 20.703125 45.609375 27.984375 
Q 45.609375 35.296875 42.578125 39.296875 
Q 39.546875 43.3125 34.078125 43.3125 
z
" id="DejaVuSans-Bold-103"/>
     <path d="M 7.8125 21.296875 
L 7.8125 54.6875 
L 25.390625 54.6875 
L 25.390625 49.21875 
Q 25.390625 44.78125 25.34375 38.0625 
Q 25.296875 31.34375 25.296875 29.109375 
Q 25.296875 22.515625 25.640625 19.609375 
Q 25.984375 16.703125 26.8125 15.375 
Q 27.875 13.671875 29.609375 12.734375 
Q 31.34375 11.8125 33.59375 11.8125 
Q 39.0625 11.8125 42.1875 16.015625 
Q 45.3125 20.21875 45.3125 27.6875 
L 45.3125 54.6875 
L 62.796875 54.6875 
L 62.796875 0 
L 45.3125 0 
L 45.3125 7.90625 
Q 41.359375 3.125 36.9375 0.84375 
Q 32.515625 -1.421875 27.203125 -1.421875 
Q 17.71875 -1.421875 12.765625 4.390625 
Q 7.8125 10.203125 7.8125 21.296875 
z
" id="DejaVuSans-Bold-117"/>
     <path d="M 49.03125 39.796875 
Q 46.734375 40.875 44.453125 41.375 
Q 42.1875 41.890625 39.890625 41.890625 
Q 33.15625 41.890625 29.515625 37.5625 
Q 25.875 33.25 25.875 25.203125 
L 25.875 0 
L 8.40625 0 
L 8.40625 54.6875 
L 25.875 54.6875 
L 25.875 45.703125 
Q 29.25 51.078125 33.609375 53.53125 
Q 37.984375 56 44.09375 56 
Q 44.96875 56 45.984375 55.921875 
Q 47.015625 55.859375 48.96875 55.609375 
z
" id="DejaVuSans-Bold-114"/>
    </defs>
    <g style="fill:#ff00ff;" transform="translate(19.6525 458.812288)scale(0.1 -0.1)">
     <use xlink:href="#DejaVuSans-Bold-70"/>
     <use x="68.310547" xlink:href="#DejaVuSans-Bold-105"/>
     <use x="102.587891" xlink:href="#DejaVuSans-Bold-103"/>
     <use x="174.169922" xlink:href="#DejaVuSans-Bold-117"/>
     <use x="245.361328" xlink:href="#DejaVuSans-Bold-114"/>
     <use x="294.677734" xlink:href="#DejaVuSans-Bold-101"/>
    </g>
   </g>
   <g id="patch_21">
    <path d="M 520.139124 477.78027 
Q 540.971422 484.362691 560.737638 490.608259 
" style="fill:none;stroke:#0000ff;stroke-linecap:round;"/>
    <path d="M 557.526087 487.496036 
L 560.737638 490.608259 
L 556.320929 491.310167 
" style="fill:none;stroke:#0000ff;stroke-linecap:round;"/>
   </g>
   <g id="text_39">
    <!-- Spines -->
    <defs>
     <path d="M 59.90625 70.609375 
L 59.90625 55.171875 
Q 53.90625 57.859375 48.1875 59.21875 
Q 42.484375 60.59375 37.40625 60.59375 
Q 30.671875 60.59375 27.4375 58.734375 
Q 24.21875 56.890625 24.21875 52.984375 
Q 24.21875 50.046875 26.390625 48.40625 
Q 28.5625 46.78125 34.28125 45.609375 
L 42.28125 44 
Q 54.4375 41.546875 59.5625 36.5625 
Q 64.703125 31.59375 64.703125 22.40625 
Q 64.703125 10.359375 57.546875 4.46875 
Q 50.390625 -1.421875 35.6875 -1.421875 
Q 28.765625 -1.421875 21.78125 -0.09375 
Q 14.796875 1.21875 7.8125 3.8125 
L 7.8125 19.671875 
Q 14.796875 15.96875 21.3125 14.078125 
Q 27.828125 12.203125 33.890625 12.203125 
Q 40.046875 12.203125 43.3125 14.25 
Q 46.578125 16.3125 46.578125 20.125 
Q 46.578125 23.53125 44.359375 25.390625 
Q 42.140625 27.25 35.5 28.71875 
L 28.21875 30.328125 
Q 17.28125 32.671875 12.21875 37.796875 
Q 7.171875 42.921875 7.171875 51.609375 
Q 7.171875 62.5 14.203125 68.359375 
Q 21.234375 74.21875 34.421875 74.21875 
Q 40.4375 74.21875 46.78125 73.3125 
Q 53.125 72.40625 59.90625 70.609375 
z
" id="DejaVuSans-Bold-83"/>
     <path d="M 25.875 7.90625 
L 25.875 -20.796875 
L 8.40625 -20.796875 
L 8.40625 54.6875 
L 25.875 54.6875 
L 25.875 46.6875 
Q 29.5 51.46875 33.890625 53.734375 
Q 38.28125 56 44 56 
Q 54.109375 56 60.59375 47.96875 
Q 67.09375 39.9375 67.09375 27.296875 
Q 67.09375 14.65625 60.59375 6.609375 
Q 54.109375 -1.421875 44 -1.421875 
Q 38.28125 -1.421875 33.890625 0.84375 
Q 29.5 3.125 25.875 7.90625 
z
M 37.5 43.3125 
Q 31.890625 43.3125 28.875 39.1875 
Q 25.875 35.0625 25.875 27.296875 
Q 25.875 19.53125 28.875 15.40625 
Q 31.890625 11.28125 37.5 11.28125 
Q 43.109375 11.28125 46.0625 15.375 
Q 49.03125 19.484375 49.03125 27.296875 
Q 49.03125 35.109375 46.0625 39.203125 
Q 43.109375 43.3125 37.5 43.3125 
z
" id="DejaVuSans-Bold-112"/>
     <path d="M 63.375 33.296875 
L 63.375 0 
L 45.796875 0 
L 45.796875 5.421875 
L 45.796875 25.484375 
Q 45.796875 32.5625 45.484375 35.25 
Q 45.171875 37.9375 44.390625 39.203125 
Q 43.359375 40.921875 41.59375 41.875 
Q 39.84375 42.828125 37.59375 42.828125 
Q 32.125 42.828125 29 38.59375 
Q 25.875 34.375 25.875 26.90625 
L 25.875 0 
L 8.40625 0 
L 8.40625 54.6875 
L 25.875 54.6875 
L 25.875 46.6875 
Q 29.828125 51.46875 34.265625 53.734375 
Q 38.71875 56 44.09375 56 
Q 53.5625 56 58.46875 50.1875 
Q 63.375 44.390625 63.375 33.296875 
z
" id="DejaVuSans-Bold-110"/>
    </defs>
    <g style="fill:#0000ff;" transform="translate(478.0935 473.2011)scale(0.1 -0.1)">
     <use xlink:href="#DejaVuSans-Bold-83"/>
     <use x="72.021484" xlink:href="#DejaVuSans-Bold-112"/>
     <use x="143.603516" xlink:href="#DejaVuSans-Bold-105"/>
     <use x="177.880859" xlink:href="#DejaVuSans-Bold-110"/>
     <use x="249.072266" xlink:href="#DejaVuSans-Bold-101"/>
     <use x="316.894531" xlink:href="#DejaVuSans-Bold-115"/>
    </g>
   </g>
   <g id="patch_22">
    <path d="M 495.331416 480.979476 
Q 478.094129 506.835407 461.477015 531.761078 
" style="fill:none;stroke:#0000ff;stroke-linecap:round;"/>
    <path d="M 465.359916 529.542277 
L 461.477015 531.761078 
L 462.031715 527.323476 
" style="fill:none;stroke:#0000ff;stroke-linecap:round;"/>
   </g>
   <g id="text_40">
    <!-- Made with http://matplotlib.org -->
    <defs>
     <path d="M 4.203125 54.6875 
L 13.1875 54.6875 
L 24.421875 12.015625 
L 35.59375 54.6875 
L 46.1875 54.6875 
L 57.421875 12.015625 
L 68.609375 54.6875 
L 77.59375 54.6875 
L 63.28125 0 
L 52.6875 0 
L 40.921875 44.828125 
L 29.109375 0 
L 18.5 0 
z
" id="DejaVuSans-119"/>
     <path d="M 54.890625 33.015625 
L 54.890625 0 
L 45.90625 0 
L 45.90625 32.71875 
Q 45.90625 40.484375 42.875 44.328125 
Q 39.84375 48.1875 33.796875 48.1875 
Q 26.515625 48.1875 22.3125 43.546875 
Q 18.109375 38.921875 18.109375 30.90625 
L 18.109375 0 
L 9.078125 0 
L 9.078125 75.984375 
L 18.109375 75.984375 
L 18.109375 46.1875 
Q 21.34375 51.125 25.703125 53.5625 
Q 30.078125 56 35.796875 56 
Q 45.21875 56 50.046875 50.171875 
Q 54.890625 44.34375 54.890625 33.015625 
z
" id="DejaVuSans-104"/>
     <path d="M 11.71875 12.40625 
L 22.015625 12.40625 
L 22.015625 0 
L 11.71875 0 
z
M 11.71875 51.703125 
L 22.015625 51.703125 
L 22.015625 39.3125 
L 11.71875 39.3125 
z
" id="DejaVuSans-58"/>
     <path d="M 25.390625 72.90625 
L 33.6875 72.90625 
L 8.296875 -9.28125 
L 0 -9.28125 
z
" id="DejaVuSans-47"/>
     <path d="M 52 44.1875 
Q 55.375 50.25 60.0625 53.125 
Q 64.75 56 71.09375 56 
Q 79.640625 56 84.28125 50.015625 
Q 88.921875 44.046875 88.921875 33.015625 
L 88.921875 0 
L 79.890625 0 
L 79.890625 32.71875 
Q 79.890625 40.578125 77.09375 44.375 
Q 74.3125 48.1875 68.609375 48.1875 
Q 61.625 48.1875 57.5625 43.546875 
Q 53.515625 38.921875 53.515625 30.90625 
L 53.515625 0 
L 44.484375 0 
L 44.484375 32.71875 
Q 44.484375 40.625 41.703125 44.40625 
Q 38.921875 48.1875 33.109375 48.1875 
Q 26.21875 48.1875 22.15625 43.53125 
Q 18.109375 38.875 18.109375 30.90625 
L 18.109375 0 
L 9.078125 0 
L 9.078125 54.6875 
L 18.109375 54.6875 
L 18.109375 46.1875 
Q 21.1875 51.21875 25.484375 53.609375 
Q 29.78125 56 35.6875 56 
Q 41.65625 56 45.828125 52.96875 
Q 50 49.953125 52 44.1875 
z
" id="DejaVuSans-109"/>
    </defs>
    <g style="fill:#808080;" transform="translate(407.6355 583.2801)scale(0.1 -0.1)">
     <use xlink:href="#DejaVuSans-77"/>
     <use x="86.279297" xlink:href="#DejaVuSans-97"/>
     <use x="147.558594" xlink:href="#DejaVuSans-100"/>
     <use x="211.035156" xlink:href="#DejaVuSans-101"/>
     <use x="272.558594" xlink:href="#DejaVuSans-32"/>
     <use x="304.345703" xlink:href="#DejaVuSans-119"/>
     <use x="386.132812" xlink:href="#DejaVuSans-105"/>
     <use x="413.916016" xlink:href="#DejaVuSans-116"/>
     <use x="453.125" xlink:href="#DejaVuSans-104"/>
     <use x="516.503906" xlink:href="#DejaVuSans-32"/>
     <use x="548.291016" xlink:href="#DejaVuSans-104"/>
     <use x="611.669922" xlink:href="#DejaVuSans-116"/>
     <use x="650.878906" xlink:href="#DejaVuSans-116"/>
     <use x="690.087891" xlink:href="#DejaVuSans-112"/>
     <use x="753.564453" xlink:href="#DejaVuSans-58"/>
     <use x="787.255859" xlink:href="#DejaVuSans-47"/>
     <use x="820.947266" xlink:href="#DejaVuSans-47"/>
     <use x="854.638672" xlink:href="#DejaVuSans-109"/>
     <use x="952.050781" xlink:href="#DejaVuSans-97"/>
     <use x="1013.330078" xlink:href="#DejaVuSans-116"/>
     <use x="1052.539062" xlink:href="#DejaVuSans-112"/>
     <use x="1116.015625" xlink:href="#DejaVuSans-108"/>
     <use x="1143.798828" xlink:href="#DejaVuSans-111"/>
     <use x="1204.980469" xlink:href="#DejaVuSans-116"/>
     <use x="1244.189453" xlink:href="#DejaVuSans-108"/>
     <use x="1271.972656" xlink:href="#DejaVuSans-105"/>
     <use x="1299.755859" xlink:href="#DejaVuSans-98"/>
     <use x="1363.232422" xlink:href="#DejaVuSans-46"/>
     <use x="1395.019531" xlink:href="#DejaVuSans-111"/>
     <use x="1456.201172" xlink:href="#DejaVuSans-114"/>
     <use x="1497.298828" xlink:href="#DejaVuSans-103"/>
    </g>
   </g>
   <g id="text_41">
    <!-- Anatomy of a figure -->
    <defs>
     <path d="M 34.1875 63.1875 
L 20.796875 26.90625 
L 47.609375 26.90625 
z
M 28.609375 72.90625 
L 39.796875 72.90625 
L 67.578125 0 
L 57.328125 0 
L 50.6875 18.703125 
L 17.828125 18.703125 
L 11.1875 0 
L 0.78125 0 
z
" id="DejaVuSans-65"/>
     <path d="M 32.171875 -5.078125 
Q 28.375 -14.84375 24.75 -17.8125 
Q 21.140625 -20.796875 15.09375 -20.796875 
L 7.90625 -20.796875 
L 7.90625 -13.28125 
L 13.1875 -13.28125 
Q 16.890625 -13.28125 18.9375 -11.515625 
Q 21 -9.765625 23.484375 -3.21875 
L 25.09375 0.875 
L 2.984375 54.6875 
L 12.5 54.6875 
L 29.59375 11.921875 
L 46.6875 54.6875 
L 56.203125 54.6875 
z
" id="DejaVuSans-121"/>
     <path d="M 37.109375 75.984375 
L 37.109375 68.5 
L 28.515625 68.5 
Q 23.6875 68.5 21.796875 66.546875 
Q 19.921875 64.59375 19.921875 59.515625 
L 19.921875 54.6875 
L 34.71875 54.6875 
L 34.71875 47.703125 
L 19.921875 47.703125 
L 19.921875 0 
L 10.890625 0 
L 10.890625 47.703125 
L 2.296875 47.703125 
L 2.296875 54.6875 
L 10.890625 54.6875 
L 10.890625 58.5 
Q 10.890625 67.625 15.140625 71.796875 
Q 19.390625 75.984375 28.609375 75.984375 
z
" id="DejaVuSans-102"/>
     <path d="M 8.5 21.578125 
L 8.5 54.6875 
L 17.484375 54.6875 
L 17.484375 21.921875 
Q 17.484375 14.15625 20.5 10.265625 
Q 23.53125 6.390625 29.59375 6.390625 
Q 36.859375 6.390625 41.078125 11.03125 
Q 45.3125 15.671875 45.3125 23.6875 
L 45.3125 54.6875 
L 54.296875 54.6875 
L 54.296875 0 
L 45.3125 0 
L 45.3125 8.40625 
Q 42.046875 3.421875 37.71875 1 
Q 33.40625 -1.421875 27.6875 -1.421875 
Q 18.265625 -1.421875 13.375 4.4375 
Q 8.5 10.296875 8.5 21.578125 
z
M 31.109375 56 
z
" id="DejaVuSans-117"/>
    </defs>
    <g style="fill:#262626;" transform="translate(209.583781 34.540787)scale(0.22 -0.22)">
     <use xlink:href="#DejaVuSans-65"/>
     <use x="68.408203" xlink:href="#DejaVuSans-110"/>
     <use x="131.787109" xlink:href="#DejaVuSans-97"/>
     <use x="193.066406" xlink:href="#DejaVuSans-116"/>
     <use x="232.275391" xlink:href="#DejaVuSans-111"/>
     <use x="293.457031" xlink:href="#DejaVuSans-109"/>
     <use x="390.869141" xlink:href="#DejaVuSans-121"/>
     <use x="450.048828" xlink:href="#DejaVuSans-32"/>
     <use x="481.835938" xlink:href="#DejaVuSans-111"/>
     <use x="543.017578" xlink:href="#DejaVuSans-102"/>
     <use x="578.222656" xlink:href="#DejaVuSans-32"/>
     <use x="610.009766" xlink:href="#DejaVuSans-97"/>
     <use x="671.289062" xlink:href="#DejaVuSans-32"/>
     <use x="703.076172" xlink:href="#DejaVuSans-102"/>
     <use x="738.28125" xlink:href="#DejaVuSans-105"/>
     <use x="766.064453" xlink:href="#DejaVuSans-103"/>
     <use x="829.541016" xlink:href="#DejaVuSans-117"/>
     <use x="892.919922" xlink:href="#DejaVuSans-114"/>
     <use x="934.001953" xlink:href="#DejaVuSans-101"/>
    </g>
   </g>
   <g id="legend_1">
    <g id="patch_23">
     <path d="M 451.226906 86.207975 
L 556.0105 86.207975 
Q 558.2105 86.207975 558.2105 84.007975 
L 558.2105 52.8161 
Q 558.2105 50.6161 556.0105 50.6161 
L 451.226906 50.6161 
Q 449.026906 50.6161 449.026906 52.8161 
L 449.026906 84.007975 
Q 449.026906 86.207975 451.226906 86.207975 
z
" style="fill:#ffffff;opacity:0.8;stroke:#cccccc;stroke-linejoin:miter;"/>
    </g>
    <g id="line2d_13">
     <path d="M 453.426906 59.524381 
L 475.426906 59.524381 
" style="fill:none;stroke:#008000;stroke-linecap:round;stroke-width:2;"/>
    </g>
    <g id="line2d_14"/>
    <g id="text_42">
     <!-- Green signal -->
     <g style="fill:#262626;" transform="translate(484.226906 63.374381)scale(0.11 -0.11)">
      <use xlink:href="#DejaVuSans-71"/>
      <use x="77.490234" xlink:href="#DejaVuSans-114"/>
      <use x="118.572266" xlink:href="#DejaVuSans-101"/>
      <use x="180.095703" xlink:href="#DejaVuSans-101"/>
      <use x="241.619141" xlink:href="#DejaVuSans-110"/>
      <use x="304.998047" xlink:href="#DejaVuSans-32"/>
      <use x="336.785156" xlink:href="#DejaVuSans-115"/>
      <use x="388.884766" xlink:href="#DejaVuSans-105"/>
      <use x="416.667969" xlink:href="#DejaVuSans-103"/>
      <use x="480.144531" xlink:href="#DejaVuSans-110"/>
      <use x="543.523438" xlink:href="#DejaVuSans-97"/>
      <use x="604.802734" xlink:href="#DejaVuSans-108"/>
     </g>
    </g>
    <g id="line2d_15">
     <path d="M 453.426906 75.670319 
L 475.426906 75.670319 
" style="fill:none;stroke:#ff0000;stroke-linecap:round;stroke-width:2;"/>
    </g>
    <g id="line2d_16"/>
    <g id="text_43">
     <!-- Red signal -->
     <defs>
      <path d="M 44.390625 34.1875 
Q 47.5625 33.109375 50.5625 29.59375 
Q 53.5625 26.078125 56.59375 19.921875 
L 66.609375 0 
L 56 0 
L 46.6875 18.703125 
Q 43.0625 26.03125 39.671875 28.421875 
Q 36.28125 30.8125 30.421875 30.8125 
L 19.671875 30.8125 
L 19.671875 0 
L 9.8125 0 
L 9.8125 72.90625 
L 32.078125 72.90625 
Q 44.578125 72.90625 50.734375 67.671875 
Q 56.890625 62.453125 56.890625 51.90625 
Q 56.890625 45.015625 53.6875 40.46875 
Q 50.484375 35.9375 44.390625 34.1875 
z
M 19.671875 64.796875 
L 19.671875 38.921875 
L 32.078125 38.921875 
Q 39.203125 38.921875 42.84375 42.21875 
Q 46.484375 45.515625 46.484375 51.90625 
Q 46.484375 58.296875 42.84375 61.546875 
Q 39.203125 64.796875 32.078125 64.796875 
z
" id="DejaVuSans-82"/>
     </defs>
     <g style="fill:#262626;" transform="translate(484.226906 79.520319)scale(0.11 -0.11)">
      <use xlink:href="#DejaVuSans-82"/>
      <use x="69.419922" xlink:href="#DejaVuSans-101"/>
      <use x="130.943359" xlink:href="#DejaVuSans-100"/>
      <use x="194.419922" xlink:href="#DejaVuSans-32"/>
      <use x="226.207031" xlink:href="#DejaVuSans-115"/>
      <use x="278.306641" xlink:href="#DejaVuSans-105"/>
      <use x="306.089844" xlink:href="#DejaVuSans-103"/>
      <use x="369.566406" xlink:href="#DejaVuSans-110"/>
      <use x="432.945312" xlink:href="#DejaVuSans-97"/>
      <use x="494.224609" xlink:href="#DejaVuSans-108"/>
     </g>
    </g>
   </g>
   <g id="line2d_17">
    <path clip-path="url(#pf353ff5f00)" d="M 135.6255 60.088977 
L 139.331864 61.914909 
L 143.038227 63.837722 
L 146.744591 65.85565 
L 150.450955 67.96684 
L 154.157318 70.169354 
L 157.863682 72.46117 
L 161.570045 74.840183 
L 165.276409 77.304208 
L 168.982773 79.850984 
L 172.689136 82.478171 
L 176.3955 85.183358 
L 180.101864 87.964061 
L 183.808227 90.817726 
L 187.514591 93.741733 
L 191.220955 96.733397 
L 194.927318 99.789971 
L 198.633682 102.908649 
L 202.340045 106.086568 
L 206.046409 109.320808 
L 209.752773 112.608401 
L 213.459136 115.946328 
L 217.1655 119.331523 
L 220.871864 122.760879 
L 224.578227 126.231247 
L 228.284591 129.739441 
L 231.990955 133.282238 
L 235.697318 136.856386 
L 239.403682 140.458604 
L 243.110045 144.085583 
L 246.816409 147.733993 
L 250.522773 151.400485 
L 254.229136 155.081692 
L 257.9355 158.774233 
L 261.641864 162.474718 
L 265.348227 166.17975 
L 269.054591 169.885926 
L 272.760955 173.589844 
L 276.467318 177.288102 
L 280.173682 180.977305 
L 283.880045 184.654065 
L 287.586409 188.315006 
L 291.292773 191.956767 
L 294.999136 195.576003 
L 298.7055 199.169393 
L 302.411864 202.733635 
L 306.118227 206.265459 
L 309.824591 209.761619 
L 313.530955 213.218907 
L 317.237318 216.634148 
L 320.943682 220.004206 
L 324.650045 223.325987 
L 328.356409 226.59644 
L 332.062773 229.812563 
L 335.769136 232.971402 
L 339.4755 236.070057 
L 343.181864 239.105683 
L 346.888227 242.075493 
L 350.594591 244.97676 
L 354.300955 247.806819 
L 358.007318 250.563072 
L 361.713682 253.242989 
L 365.420045 255.844108 
L 369.126409 258.364042 
L 372.832773 260.800476 
L 376.539136 263.151173 
L 380.2455 265.413976 
L 383.951864 267.586805 
L 387.658227 269.667667 
L 391.364591 271.65465 
L 395.070955 273.54593 
L 398.777318 275.33977 
L 402.483682 277.034524 
L 406.190045 278.628635 
L 409.896409 280.12064 
L 413.602773 281.509168 
L 417.309136 282.792944 
L 421.0155 283.97079 
L 424.721864 285.041625 
L 428.428227 286.004464 
L 432.134591 286.858425 
L 435.840955 287.602722 
L 439.547318 288.236673 
L 443.253682 288.759695 
L 446.960045 289.171308 
L 450.666409 289.471134 
L 454.372773 289.658898 
L 458.079136 289.734428 
L 461.7855 289.697653 
L 465.491864 289.548609 
L 469.198227 289.287431 
L 472.904591 288.91436 
L 476.610955 288.429738 
L 480.317318 287.834009 
L 484.023682 287.127722 
L 487.730045 286.311525 
L 491.436409 285.386166 
L 495.142773 284.352496 
L 498.849136 283.211464 
L 502.5555 281.964117 
" style="fill:none;stroke:#008000;stroke-linecap:round;stroke-width:2;"/>
   </g>
   <g id="patch_24">
    <path d="M 135.6255 564.9336 
C 140.491049 564.9336 145.157972 563.000497 148.598435 559.560035 
C 152.038897 556.119572 153.972 551.452649 153.972 546.5871 
C 153.972 541.721551 152.038897 537.054628 148.598435 533.614165 
C 145.157972 530.173703 140.491049 528.2406 135.6255 528.2406 
C 130.759951 528.2406 126.093028 530.173703 122.652565 533.614165 
C 119.212103 537.054628 117.279 541.721551 117.279 546.5871 
C 117.279 551.452649 119.212103 556.119572 122.652565 559.560035 
C 126.093028 563.000497 130.759951 564.9336 135.6255 564.9336 
z
" style="fill-opacity:0.0125;stroke:#ffffff;stroke-linejoin:miter;stroke-width:5;"/>
    <path d="M 135.6255 564.9336 
C 140.491049 564.9336 145.157972 563.000497 148.598435 559.560035 
C 152.038897 556.119572 153.972 551.452649 153.972 546.5871 
C 153.972 541.721551 152.038897 537.054628 148.598435 533.614165 
C 145.157972 530.173703 140.491049 528.2406 135.6255 528.2406 
C 130.759951 528.2406 126.093028 530.173703 122.652565 533.614165 
C 119.212103 537.054628 117.279 541.721551 117.279 546.5871 
C 117.279 551.452649 119.212103 556.119572 122.652565 559.560035 
C 126.093028 563.000497 130.759951 564.9336 135.6255 564.9336 
z
" style="fill-opacity:0.0125;stroke:#0000ff;stroke-linejoin:miter;"/>
    <g id="patch_25">
     <path d="M 70.8012 63.4626 
C 75.666749 63.4626 80.333672 61.529497 83.774135 58.089035 
C 87.214597 54.648572 89.1477 49.981649 89.1477 45.1161 
C 89.1477 40.250551 87.214597 35.583628 83.774135 32.143165 
C 80.333672 28.702703 75.666749 26.7696 70.8012 26.7696 
C 65.935651 26.7696 61.268728 28.702703 57.828265 32.143165 
C 54.387803 35.583628 52.4547 40.250551 52.4547 45.1161 
C 52.4547 49.981649 54.387803 54.648572 57.828265 58.089035 
C 61.268728 61.529497 65.935651 63.4626 70.8012 63.4626 
z
" style="fill-opacity:0.0125;stroke:#ffffff;stroke-linejoin:miter;stroke-width:5;"/>
     <path d="M 70.8012 63.4626 
C 75.666749 63.4626 80.333672 61.529497 83.774135 58.089035 
C 87.214597 54.648572 89.1477 49.981649 89.1477 45.1161 
C 89.1477 40.250551 87.214597 35.583628 83.774135 32.143165 
C 80.333672 28.702703 75.666749 26.7696 70.8012 26.7696 
C 65.935651 26.7696 61.268728 28.702703 57.828265 32.143165 
C 54.387803 35.583628 52.4547 40.250551 52.4547 45.1161 
C 52.4547 49.981649 54.387803 54.648572 57.828265 58.089035 
C 61.268728 61.529497 65.935651 63.4626 70.8012 63.4626 
z
" style="fill-opacity:0.0125;stroke:#0000ff;stroke-linejoin:miter;"/>
     <g id="patch_26">
      <path d="M 74.4705 124.6176 
C 79.336049 124.6176 84.002972 122.684497 87.443435 119.244035 
C 90.883897 115.803572 92.817 111.136649 92.817 106.2711 
C 92.817 101.405551 90.883897 96.738628 87.443435 93.298165 
C 84.002972 89.857703 79.336049 87.9246 74.4705 87.9246 
C 69.604951 87.9246 64.938028 89.857703 61.497565 93.298165 
C 58.057103 96.738628 56.124 101.405551 56.124 106.2711 
C 56.124 111.136649 58.057103 115.803572 61.497565 119.244035 
C 64.938028 122.684497 69.604951 124.6176 74.4705 124.6176 
z
" style="fill-opacity:0.0125;stroke:#ffffff;stroke-linejoin:miter;stroke-width:5;"/>
      <path d="M 74.4705 124.6176 
C 79.336049 124.6176 84.002972 122.684497 87.443435 119.244035 
C 90.883897 115.803572 92.817 111.136649 92.817 106.2711 
C 92.817 101.405551 90.883897 96.738628 87.443435 93.298165 
C 84.002972 89.857703 79.336049 87.9246 74.4705 87.9246 
C 69.604951 87.9246 64.938028 89.857703 61.497565 93.298165 
C 58.057103 96.738628 56.124 101.405551 56.124 106.2711 
C 56.124 111.136649 58.057103 115.803572 61.497565 119.244035 
C 64.938028 122.684497 69.604951 124.6176 74.4705 124.6176 
z
" style="fill-opacity:0.0125;stroke:#0000ff;stroke-linejoin:miter;"/>
      <g id="patch_27">
       <path d="M 56.124 185.7726 
C 60.989549 185.7726 65.656472 183.839497 69.096935 180.399035 
C 72.537397 176.958572 74.4705 172.291649 74.4705 167.4261 
C 74.4705 162.560551 72.537397 157.893628 69.096935 154.453165 
C 65.656472 151.012703 60.989549 149.0796 56.124 149.0796 
C 51.258451 149.0796 46.591528 151.012703 43.151065 154.453165 
C 39.710603 157.893628 37.7775 162.560551 37.7775 167.4261 
C 37.7775 172.291649 39.710603 176.958572 43.151065 180.399035 
C 46.591528 183.839497 51.258451 185.7726 56.124 185.7726 
z
" style="fill-opacity:0.0125;stroke:#ffffff;stroke-linejoin:miter;stroke-width:5;"/>
       <path d="M 56.124 185.7726 
C 60.989549 185.7726 65.656472 183.839497 69.096935 180.399035 
C 72.537397 176.958572 74.4705 172.291649 74.4705 167.4261 
C 74.4705 162.560551 72.537397 157.893628 69.096935 154.453165 
C 65.656472 151.012703 60.989549 149.0796 56.124 149.0796 
C 51.258451 149.0796 46.591528 151.012703 43.151065 154.453165 
C 39.710603 157.893628 37.7775 162.560551 37.7775 167.4261 
C 37.7775 172.291649 39.710603 176.958572 43.151065 180.399035 
C 46.591528 183.839497 51.258451 185.7726 56.124 185.7726 
z
" style="fill-opacity:0.0125;stroke:#0000ff;stroke-linejoin:miter;"/>
       <g id="patch_28">
        <path d="M 294.6285 585.7263 
C 299.494049 585.7263 304.160972 583.793197 307.601435 580.352735 
C 311.041897 576.912272 312.975 572.245349 312.975 567.3798 
C 312.975 562.514251 311.041897 557.847328 307.601435 554.406865 
C 304.160972 550.966403 299.494049 549.0333 294.6285 549.0333 
C 289.762951 549.0333 285.096028 550.966403 281.655565 554.406865 
C 278.215103 557.847328 276.282 562.514251 276.282 567.3798 
C 276.282 572.245349 278.215103 576.912272 281.655565 580.352735 
C 285.096028 583.793197 289.762951 585.7263 294.6285 585.7263 
z
" style="fill-opacity:0.0125;stroke:#ffffff;stroke-linejoin:miter;stroke-width:5;"/>
        <path d="M 294.6285 585.7263 
C 299.494049 585.7263 304.160972 583.793197 307.601435 580.352735 
C 311.041897 576.912272 312.975 572.245349 312.975 567.3798 
C 312.975 562.514251 311.041897 557.847328 307.601435 554.406865 
C 304.160972 550.966403 299.494049 549.0333 294.6285 549.0333 
C 289.762951 549.0333 285.096028 550.966403 281.655565 554.406865 
C 278.215103 557.847328 276.282 562.514251 276.282 567.3798 
C 276.282 572.245349 278.215103 576.912272 281.655565 580.352735 
C 285.096028 583.793197 289.762951 585.7263 294.6285 585.7263 
z
" style="fill-opacity:0.0125;stroke:#0000ff;stroke-linejoin:miter;"/>
        <g id="patch_29">
         <path d="M 41.4468 332.5446 
C 46.312349 332.5446 50.979272 330.611497 54.419735 327.171035 
C 57.860197 323.730572 59.7933 319.063649 59.7933 314.1981 
C 59.7933 309.332551 57.860197 304.665628 54.419735 301.225165 
C 50.979272 297.784703 46.312349 295.8516 41.4468 295.8516 
C 36.581251 295.8516 31.914328 297.784703 28.473865 301.225165 
C 25.033403 304.665628 23.1003 309.332551 23.1003 314.1981 
C 23.1003 319.063649 25.033403 323.730572 28.473865 327.171035 
C 31.914328 330.611497 36.581251 332.5446 41.4468 332.5446 
z
" style="fill-opacity:0.0125;stroke:#ffffff;stroke-linejoin:miter;stroke-width:5;"/>
         <path d="M 41.4468 332.5446 
C 46.312349 332.5446 50.979272 330.611497 54.419735 327.171035 
C 57.860197 323.730572 59.7933 319.063649 59.7933 314.1981 
C 59.7933 309.332551 57.860197 304.665628 54.419735 301.225165 
C 50.979272 297.784703 46.312349 295.8516 41.4468 295.8516 
C 36.581251 295.8516 31.914328 297.784703 28.473865 301.225165 
C 25.033403 304.665628 23.1003 309.332551 23.1003 314.1981 
C 23.1003 319.063649 25.033403 323.730572 28.473865 327.171035 
C 31.914328 330.611497 36.581251 332.5446 41.4468 332.5446 
z
" style="fill-opacity:0.0125;stroke:#0000ff;stroke-linejoin:miter;"/>
         <g id="patch_30">
          <path d="M 441.4005 185.7726 
C 446.266049 185.7726 450.932972 183.839497 454.373435 180.399035 
C 457.813897 176.958572 459.747 172.291649 459.747 167.4261 
C 459.747 162.560551 457.813897 157.893628 454.373435 154.453165 
C 450.932972 151.012703 446.266049 149.0796 441.4005 149.0796 
C 436.534951 149.0796 431.868028 151.012703 428.427565 154.453165 
C 424.987103 157.893628 423.054 162.560551 423.054 167.4261 
C 423.054 172.291649 424.987103 176.958572 428.427565 180.399035 
C 431.868028 183.839497 436.534951 185.7726 441.4005 185.7726 
z
" style="fill-opacity:0.0125;stroke:#ffffff;stroke-linejoin:miter;stroke-width:5;"/>
          <path d="M 441.4005 185.7726 
C 446.266049 185.7726 450.932972 183.839497 454.373435 180.399035 
C 457.813897 176.958572 459.747 172.291649 459.747 167.4261 
C 459.747 162.560551 457.813897 157.893628 454.373435 154.453165 
C 450.932972 151.012703 446.266049 149.0796 441.4005 149.0796 
C 436.534951 149.0796 431.868028 151.012703 428.427565 154.453165 
C 424.987103 157.893628 423.054 162.560551 423.054 167.4261 
C 423.054 172.291649 424.987103 176.958572 428.427565 180.399035 
C 431.868028 183.839497 436.534951 185.7726 441.4005 185.7726 
z
" style="fill-opacity:0.0125;stroke:#0000ff;stroke-linejoin:miter;"/>
          <g id="patch_31">
           <path d="M 288.513 210.2346 
C 293.378549 210.2346 298.045472 208.301497 301.485935 204.861035 
C 304.926397 201.420572 306.8595 196.753649 306.8595 191.8881 
C 306.8595 187.022551 304.926397 182.355628 301.485935 178.915165 
C 298.045472 175.474703 293.378549 173.5416 288.513 173.5416 
C 283.647451 173.5416 278.980528 175.474703 275.540065 178.915165 
C 272.099603 182.355628 270.1665 187.022551 270.1665 191.8881 
C 270.1665 196.753649 272.099603 201.420572 275.540065 204.861035 
C 278.980528 208.301497 283.647451 210.2346 288.513 210.2346 
z
" style="fill-opacity:0.0125;stroke:#ffffff;stroke-linejoin:miter;stroke-width:5;"/>
           <path d="M 288.513 210.2346 
C 293.378549 210.2346 298.045472 208.301497 301.485935 204.861035 
C 304.926397 201.420572 306.8595 196.753649 306.8595 191.8881 
C 306.8595 187.022551 304.926397 182.355628 301.485935 178.915165 
C 298.045472 175.474703 293.378549 173.5416 288.513 173.5416 
C 283.647451 173.5416 278.980528 175.474703 275.540065 178.915165 
C 272.099603 182.355628 270.1665 187.022551 270.1665 191.8881 
C 270.1665 196.753649 272.099603 201.420572 275.540065 204.861035 
C 278.980528 208.301497 283.647451 210.2346 288.513 210.2346 
z
" style="fill-opacity:0.0125;stroke:#0000ff;stroke-linejoin:miter;"/>
           <g id="patch_32">
            <path d="M 221.2425 479.3166 
C 226.108049 479.3166 230.774972 477.383497 234.215435 473.943035 
C 237.655897 470.502572 239.589 465.835649 239.589 460.9701 
C 239.589 456.104551 237.655897 451.437628 234.215435 447.997165 
C 230.774972 444.556703 226.108049 442.6236 221.2425 442.6236 
C 216.376951 442.6236 211.710028 444.556703 208.269565 447.997165 
C 204.829103 451.437628 202.896 456.104551 202.896 460.9701 
C 202.896 465.835649 204.829103 470.502572 208.269565 473.943035 
C 211.710028 477.383497 216.376951 479.3166 221.2425 479.3166 
z
" style="fill-opacity:0.0125;stroke:#ffffff;stroke-linejoin:miter;stroke-width:5;"/>
            <path d="M 221.2425 479.3166 
C 226.108049 479.3166 230.774972 477.383497 234.215435 473.943035 
C 237.655897 470.502572 239.589 465.835649 239.589 460.9701 
C 239.589 456.104551 237.655897 451.437628 234.215435 447.997165 
C 230.774972 444.556703 226.108049 442.6236 221.2425 442.6236 
C 216.376951 442.6236 211.710028 444.556703 208.269565 447.997165 
C 204.829103 451.437628 202.896 456.104551 202.896 460.9701 
C 202.896 465.835649 204.829103 470.502572 208.269565 473.943035 
C 211.710028 477.383497 216.376951 479.3166 221.2425 479.3166 
z
" style="fill-opacity:0.0125;stroke:#0000ff;stroke-linejoin:miter;"/>
            <g id="patch_33">
             <path d="M 465.8625 338.6601 
C 470.728049 338.6601 475.394972 336.726997 478.835435 333.286535 
C 482.275897 329.846072 484.209 325.179149 484.209 320.3136 
C 484.209 315.448051 482.275897 310.781128 478.835435 307.340665 
C 475.394972 303.900203 470.728049 301.9671 465.8625 301.9671 
C 460.996951 301.9671 456.330028 303.900203 452.889565 307.340665 
C 449.449103 310.781128 447.516 315.448051 447.516 320.3136 
C 447.516 325.179149 449.449103 329.846072 452.889565 333.286535 
C 456.330028 336.726997 460.996951 338.6601 465.8625 338.6601 
z
" style="fill-opacity:0.0125;stroke:#ffffff;stroke-linejoin:miter;stroke-width:5;"/>
             <path d="M 465.8625 338.6601 
C 470.728049 338.6601 475.394972 336.726997 478.835435 333.286535 
C 482.275897 329.846072 484.209 325.179149 484.209 320.3136 
C 484.209 315.448051 482.275897 310.781128 478.835435 307.340665 
C 475.394972 303.900203 470.728049 301.9671 465.8625 301.9671 
C 460.996951 301.9671 456.330028 303.900203 452.889565 307.340665 
C 449.449103 310.781128 447.516 315.448051 447.516 320.3136 
C 447.516 325.179149 449.449103 329.846072 452.889565 333.286535 
C 456.330028 336.726997 460.996951 338.6601 465.8625 338.6601 
z
" style="fill-opacity:0.0125;stroke:#0000ff;stroke-linejoin:miter;"/>
             <g id="patch_34">
              <path d="M 270.1665 51.2316 
C 276.005158 51.2316 281.605467 48.911876 285.734021 44.783321 
C 289.862576 40.654767 292.1823 35.054458 292.1823 29.2158 
C 292.1823 23.377142 289.862576 17.776833 285.734021 13.648279 
C 281.605467 9.519724 276.005158 7.2 270.1665 7.2 
C 264.327842 7.2 258.727533 9.519724 254.598979 13.648279 
C 250.470424 17.776833 248.1507 23.377142 248.1507 29.2158 
C 248.1507 35.054458 250.470424 40.654767 254.598979 44.783321 
C 258.727533 48.911876 264.327842 51.2316 270.1665 51.2316 
z
" style="fill-opacity:0.0125;stroke:#ffffff;stroke-linejoin:miter;stroke-width:5;"/>
              <path d="M 270.1665 51.2316 
C 276.005158 51.2316 281.605467 48.911876 285.734021 44.783321 
C 289.862576 40.654767 292.1823 35.054458 292.1823 29.2158 
C 292.1823 23.377142 289.862576 17.776833 285.734021 13.648279 
C 281.605467 9.519724 276.005158 7.2 270.1665 7.2 
C 264.327842 7.2 258.727533 9.519724 254.598979 13.648279 
C 250.470424 17.776833 248.1507 23.377142 248.1507 29.2158 
C 248.1507 35.054458 250.470424 40.654767 254.598979 44.783321 
C 258.727533 48.911876 264.327842 51.2316 270.1665 51.2316 
z
" style="fill-opacity:0.0125;stroke:#0000ff;stroke-linejoin:miter;"/>
              <g id="patch_35">
               <path d="M 527.0175 91.5939 
C 532.856158 91.5939 538.456467 89.274176 542.585021 85.145621 
C 546.713576 81.017067 549.0333 75.416758 549.0333 69.5781 
C 549.0333 63.739442 546.713576 58.139133 542.585021 54.010579 
C 538.456467 49.882024 532.856158 47.5623 527.0175 47.5623 
C 521.178842 47.5623 515.578533 49.882024 511.449979 54.010579 
C 507.321424 58.139133 505.0017 63.739442 505.0017 69.5781 
C 505.0017 75.416758 507.321424 81.017067 511.449979 85.145621 
C 515.578533 89.274176 521.178842 91.5939 527.0175 91.5939 
z
" style="fill-opacity:0.0125;stroke:#ffffff;stroke-linejoin:miter;stroke-width:5;"/>
               <path d="M 527.0175 91.5939 
C 532.856158 91.5939 538.456467 89.274176 542.585021 85.145621 
C 546.713576 81.017067 549.0333 75.416758 549.0333 69.5781 
C 549.0333 63.739442 546.713576 58.139133 542.585021 54.010579 
C 538.456467 49.882024 532.856158 47.5623 527.0175 47.5623 
C 521.178842 47.5623 515.578533 49.882024 511.449979 54.010579 
C 507.321424 58.139133 505.0017 63.739442 505.0017 69.5781 
C 505.0017 75.416758 507.321424 81.017067 511.449979 85.145621 
C 515.578533 89.274176 521.178842 91.5939 527.0175 91.5939 
z
" style="fill-opacity:0.0125;stroke:#0000ff;stroke-linejoin:miter;"/>
               <g id="patch_36">
                <path d="M 135.6255 503.7786 
C 143.734748 503.7786 151.512953 500.556762 157.247058 494.822658 
C 162.981162 489.088553 166.203 481.310348 166.203 473.2011 
C 166.203 465.091852 162.981162 457.313647 157.247058 451.579542 
C 151.512953 445.845438 143.734748 442.6236 135.6255 442.6236 
C 127.516252 442.6236 119.738047 445.845438 114.003942 451.579542 
C 108.269838 457.313647 105.048 465.091852 105.048 473.2011 
C 105.048 481.310348 108.269838 489.088553 114.003942 494.822658 
C 119.738047 500.556762 127.516252 503.7786 135.6255 503.7786 
z
" style="fill:#00ffff;fill-opacity:0.0125;stroke:#ffffff;stroke-linejoin:miter;stroke-width:5;"/>
                <path d="M 135.6255 503.7786 
C 143.734748 503.7786 151.512953 500.556762 157.247058 494.822658 
C 162.981162 489.088553 166.203 481.310348 166.203 473.2011 
C 166.203 465.091852 162.981162 457.313647 157.247058 451.579542 
C 151.512953 445.845438 143.734748 442.6236 135.6255 442.6236 
C 127.516252 442.6236 119.738047 445.845438 114.003942 451.579542 
C 108.269838 457.313647 105.048 465.091852 105.048 473.2011 
C 105.048 481.310348 108.269838 489.088553 114.003942 494.822658 
C 119.738047 500.556762 127.516252 503.7786 135.6255 503.7786 
z
" style="fill:#00ffff;fill-opacity:0.0125;stroke:#00ffff;stroke-linejoin:miter;"/>
                <g id="patch_37">
                 <path d="M 37.7775 485.4321 
C 45.886748 485.4321 53.664953 482.210262 59.399058 476.476158 
C 65.133162 470.742053 68.355 462.963848 68.355 454.8546 
C 68.355 446.745352 65.133162 438.967147 59.399058 433.233042 
C 53.664953 427.498938 45.886748 424.2771 37.7775 424.2771 
C 29.668252 424.2771 21.890047 427.498938 16.155942 433.233042 
C 10.421838 438.967147 7.2 446.745352 7.2 454.8546 
C 7.2 462.963848 10.421838 470.742053 16.155942 476.476158 
C 21.890047 482.210262 29.668252 485.4321 37.7775 485.4321 
z
" style="fill:#ff00ff;fill-opacity:0.0125;stroke:#ffffff;stroke-linejoin:miter;stroke-width:5;"/>
                 <path d="M 37.7775 485.4321 
C 45.886748 485.4321 53.664953 482.210262 59.399058 476.476158 
C 65.133162 470.742053 68.355 462.963848 68.355 454.8546 
C 68.355 446.745352 65.133162 438.967147 59.399058 433.233042 
C 53.664953 427.498938 45.886748 424.2771 37.7775 424.2771 
C 29.668252 424.2771 21.890047 427.498938 16.155942 433.233042 
C 10.421838 438.967147 7.2 446.745352 7.2 454.8546 
C 7.2 462.963848 10.421838 470.742053 16.155942 476.476158 
C 21.890047 482.210262 29.668252 485.4321 37.7775 485.4321 
z
" style="fill:#ff00ff;fill-opacity:0.0125;stroke:#ff00ff;stroke-linejoin:miter;"/>
                </g>
               </g>
               <defs>
                <clipPath id="pf353ff5f00">
                 <rect height="489.24" width="489.24" x="74.4705" y="45.1161"/>
                </clipPath>
               </defs>
              </g>
             </g>
            </g>
           </g>
          </g>
         </g>
        </g>
       </g>
      </g>
     </g>
    </g>
   </g>
  </g>
 </g>
</svg>
